<?xml version="1.0" standalone="no"?>
<!DOCTYPE svg PUBLIC "-//W3C//DTD SVG 1.1//EN" "http://www.w3.org/Graphics/SVG/1.1/DTD/svg11.dtd" >
<svg xmlns="http://www.w3.org/2000/svg">
<metadata></metadata>
<defs>
<font id="vodafone_rgbold" horiz-adv-x="1050" >
<font-face units-per-em="2048" ascent="1638" descent="-410" />
<missing-glyph horiz-adv-x="389" />
<glyph unicode="&#xfb01;" horiz-adv-x="1122" d="M31 782v205h131v35q0 102 33.5 174t90 116t130 63.5t151.5 19.5q127 0 208 -27t134 -59l-96 -201q-39 27 -98.5 44t-128.5 17q-70 0 -121 -34.5t-51 -122.5v-25h213v-205h-211v-782h-254v782h-131zM741 0v987h254v-987h-254z" />
<glyph unicode="&#xfb02;" horiz-adv-x="1239" d="M31 782v205h133v31q0 113 45 186.5t116.5 114.5t158.5 57.5t171 16.5q41 0 86 -3.5t89 -8.5t85 -12t74 -15v-1065q0 -53 21.5 -72.5t60.5 -19.5q23 0 43.5 5t38.5 13l45 -192q-16 -10 -73.5 -28t-127.5 -18q-53 0 -101 14.5t-84 45.5t-56.5 81t-20.5 122v931 q-49 6 -108 7q-92 0 -152.5 -37t-60.5 -123v-31h198v-205h-196v-782h-254v782h-131z" />
<glyph horiz-adv-x="411" />
<glyph horiz-adv-x="411" />
<glyph unicode="&#xd;" horiz-adv-x="389" />
<glyph unicode=" "  horiz-adv-x="389" />
<glyph unicode="&#x09;" horiz-adv-x="389" />
<glyph unicode="&#xa0;" horiz-adv-x="389" />
<glyph unicode="!" horiz-adv-x="468" d="M76 143q0 66 44 116t116 50q70 0 113.5 -50t43.5 -116t-43.5 -116t-113.5 -50q-72 0 -116 50.5t-44 115.5zM109 432v934h258v-934h-258z" />
<glyph unicode="&#x22;" horiz-adv-x="880" d="M123 760v606h242v-606h-242zM514 760v606h244v-606h-244z" />
<glyph unicode="#" horiz-adv-x="1120" d="M0 422v244h270v186h-270v242h270v272h232v-272h176v272h229v-272h273v-242h-273v-186h273v-244h-273v-270h-229v270h-176v-270h-232v270h-270zM502 666h176v186h-176v-186z" />
<glyph unicode="$" d="M33 182l164 199q66 -80 143.5 -124t165.5 -44q92 0 147.5 40t55.5 114q0 41 -15.5 71.5t-42 53t-60.5 40t-73 33.5l-47 19q-78 31 -149.5 62.5t-128 79.5t-90 115.5t-33.5 168.5q0 84 29.5 149.5t80.5 111.5t115.5 74.5t136.5 38.5v302h178v-295q106 -14 200.5 -67.5 t147.5 -139.5l-163 -168q-70 78 -134.5 110.5t-136.5 32.5q-88 0 -139 -37t-51 -102q0 -35 17.5 -62.5t43 -47t56 -34t55.5 -24.5l57 -23q76 -31 149.5 -65.5t132 -84.5t94.5 -123t36 -179q0 -86 -30 -154.5t-80 -119t-116.5 -81t-138.5 -42.5v-265h-178v262 q-129 16 -232.5 69.5t-166.5 135.5z" />
<glyph unicode="%" horiz-adv-x="1439" d="M8 1061q0 61 20.5 118.5t61.5 102.5t101.5 72.5t142.5 27.5t143.5 -27.5t102.5 -72.5t61.5 -102.5t20.5 -116.5q0 -61 -20.5 -118.5t-61.5 -102.5t-102.5 -73t-143.5 -28t-142.5 28t-101.5 73t-61.5 102t-20.5 117zM20 135l1278 1247l136 -141l-1278 -1253zM215 1065 q0 -53 28.5 -100t88.5 -47q59 0 88 47t29 100q0 27 -7.5 52.5t-21.5 46t-37 33.5t-51 13q-29 0 -51.5 -13t-37 -33.5t-21.5 -46t-7 -52.5zM780 303q0 59 20.5 117.5t61.5 103.5t102.5 73t145.5 28q80 0 141.5 -28t101.5 -73t60.5 -102.5t20.5 -116.5q0 -61 -20.5 -118.5 t-61.5 -102.5t-101.5 -72.5t-142.5 -27.5t-143.5 27.5t-102.5 72.5t-61.5 102.5t-20.5 116.5zM989 305q0 -53 29 -99t88 -46t88 46t29 99t-29 99.5t-88 46.5t-88 -46.5t-29 -99.5z" />
<glyph unicode="&#x26;" horiz-adv-x="1277" d="M27 373q0 121 65.5 232.5t206.5 195.5l55 33q-39 51 -69.5 109t-30.5 132q0 68 25.5 122t71.5 91t108.5 57.5t134.5 20.5t126 -14.5t97 -40t76 -61.5t63 -76l-163 -148q-47 66 -93.5 103.5t-101.5 37.5q-47 0 -73.5 -22.5t-26.5 -61.5q0 -29 15 -58.5t42 -63.5l272 -375 l209 305l174 -158l-237 -344l284 -389h-296l-127 176q-33 -43 -69 -80t-81 -63.5t-102.5 -41t-135.5 -14.5q-111 0 -190.5 33t-130.5 88.5t-74.5 127t-23.5 147.5zM279 385q0 -86 46 -137t130 -51q43 0 77.5 16t64.5 41t53.5 54.5t41.5 58.5l-213 290l-43 -24 q-74 -43 -115.5 -106.5t-41.5 -141.5z" />
<glyph unicode="'" horiz-adv-x="487" d="M123 760v606h242v-606h-242z" />
<glyph unicode="(" horiz-adv-x="645" d="M78 684q0 141 31.5 266t88 228.5t136.5 185.5t178 137l113 -145q-139 -104 -215 -270t-76 -402t75.5 -401.5t215.5 -270.5l-113 -145q-98 55 -178 137t-136.5 185.5t-88 228.5t-31.5 266z" />
<glyph unicode=")" horiz-adv-x="645" d="M20 12q139 104 215 270.5t76 401.5q0 236 -75.5 401.5t-215.5 270.5l113 145q98 -55 178 -137t136.5 -185.5t88 -228.5t31.5 -266t-31.5 -266t-88 -228.5t-136.5 -185.5t-178 -137z" />
<glyph unicode="*" horiz-adv-x="884" d="M53 1235l111 166l178 -121v205h193v-205l186 121l113 -166l-216 -137l209 -137l-100 -177l-192 125v-215h-193v215l-186 -125l-99 177l211 135z" />
<glyph unicode="+" d="M45 563v225h373v412h213v-412h373v-225h-373v-405h-213v405h-373z" />
<glyph unicode="," horiz-adv-x="417" d="M53 139q0 57 37 101.5t107 44.5q72 0 110.5 -51.5t38.5 -131.5q0 -76 -45 -169t-156 -179l-67 92q35 29 65.5 69t34.5 75q-49 4 -87 46t-38 103z" />
<glyph unicode="-" horiz-adv-x="643" d="M74 412v243h493v-243h-493z" />
<glyph unicode="." horiz-adv-x="432" d="M74 125q0 57 35.5 103t107.5 46t106.5 -46t34.5 -103q0 -55 -34.5 -101.5t-106.5 -46.5t-107.5 46.5t-35.5 101.5z" />
<glyph unicode="/" horiz-adv-x="1056" d="M0 51l864 1518l193 -109l-860 -1526z" />
<glyph unicode="0" d="M37 676q0 123 24.5 248t82 226t151.5 165.5t231 64.5t230.5 -64.5t151 -165.5t82 -226t24.5 -248t-24.5 -248t-82 -226.5t-150.5 -166t-231 -64.5q-137 0 -231 64.5t-151.5 166t-82 226.5t-24.5 248zM303 678q0 -98 13.5 -183t40 -149.5t68.5 -101.5t101 -37 q57 0 99.5 37t70 101.5t40 149.5t12.5 183t-12.5 183t-40 147.5t-69.5 99.5t-100 37q-59 0 -101 -37t-69.5 -99.5t-40 -147.5t-12.5 -183z" />
<glyph unicode="1" d="M129 1083l428 273h203v-1356h-266v1040l-244 -155z" />
<glyph unicode="2" d="M57 1182q12 14 48 47t93.5 66.5t136.5 59t179 25.5q96 0 175 -28.5t136.5 -81.5t88 -128t30.5 -167q0 -133 -50 -224.5t-159 -170.5l-205 -152q-47 -35 -80.5 -60.5t-54 -47t-30 -41t-9.5 -41.5h605v-238h-877v162q0 41 6 84t22.5 86t48.5 85t81 79l284 219 q43 33 71 61.5t44 56t22.5 57.5t6.5 66q0 86 -51.5 134.5t-143.5 48.5q-57 0 -105 -19.5t-86 -45t-63.5 -51.5t-38.5 -38z" />
<glyph unicode="3" d="M31 129l114 215q72 -63 155 -102t179 -39q47 0 90 11t76 38t52.5 68.5t19.5 101.5q0 123 -79 175t-210 52q-27 0 -57.5 -2t-59.5 -6v168q18 33 47 75t66 85t78 85t84 79h-523v233h855v-227q-43 -29 -90.5 -65t-92.5 -76t-84 -80.5t-63 -79.5q76 0 147.5 -21.5t125.5 -70 t87 -125t33 -187.5q0 -117 -40 -203t-107.5 -144t-157.5 -87t-193 -29q-147 0 -259.5 44t-192.5 114z" />
<glyph unicode="4" d="M53 266v203l613 897h211v-864h133v-236h-133v-266h-256v266h-568zM332 502h289v438z" />
<glyph unicode="5" d="M35 104l106 228q72 -55 149 -89t169 -34q49 0 95 12t81 40t55.5 72t20.5 109q0 125 -78 182.5t-225 57.5q-70 0 -134.5 -11.5t-117.5 -23.5v719h757v-233h-526v-228q4 2 24.5 3t34.5 1q248 0 382.5 -111t134.5 -347q0 -127 -40 -218.5t-110 -149.5t-161 -85t-195 -27 q-72 0 -136.5 11.5t-119 31t-97.5 43t-69 47.5z" />
<glyph unicode="6" d="M86 500q0 94 17.5 195.5t55.5 197.5t99 182t150.5 150.5t208 102.5t272.5 38l59 -205h-14q-145 0 -238.5 -33.5t-152 -84t-89 -107.5t-46.5 -105q39 25 85 39.5t103 14.5q88 0 159.5 -34t122 -95.5t77 -146.5t26.5 -187q0 -84 -27.5 -165t-83 -144.5t-139.5 -102.5 t-194 -39q-86 0 -167 31t-143.5 95.5t-101.5 163.5t-39 239zM358 475q0 -76 15.5 -127t41 -83t58.5 -45t68 -13q78 0 125 57.5t47 155.5q0 111 -50.5 173t-130.5 62q-47 0 -91 -15t-70 -32q-4 -12 -8.5 -47t-4.5 -86z" />
<glyph unicode="7" d="M84 1133v233h903v-223q-207 -289 -332 -566.5t-174 -576.5h-274q41 289 165 567.5t322 565.5h-610z" />
<glyph unicode="8" d="M80 383q0 43 11 88t32.5 88t52.5 80t72 61q-78 59 -113 138.5t-35 152.5q0 76 30 145.5t85 124t134 87t177 32.5q96 0 175 -31.5t134.5 -85t86 -123t30.5 -145.5q0 -74 -36.5 -156.5t-110.5 -136.5q84 -51 125 -141t41 -176q0 -78 -30 -151.5t-86 -132t-139 -94.5 t-190 -36q-106 0 -189 35t-140.5 93.5t-87 132t-29.5 151.5zM338 399q0 -39 12 -73.5t37 -62t59.5 -44t79.5 -16.5q92 0 140.5 57t48.5 135t-50.5 135.5t-140.5 57.5q-88 0 -137 -56.5t-49 -132.5zM360 985q0 -33 10.5 -65.5t32 -59t52 -43t71.5 -16.5q39 0 70 17.5t52.5 44 t32.5 59t11 65.5q0 31 -11 61.5t-32.5 55t-52.5 40t-70 15.5t-69.5 -15.5t-52 -40t-33 -56t-11.5 -62.5z" />
<glyph unicode="9" d="M74 930q0 88 27.5 170t83 144.5t139.5 99t194 36.5q86 0 166 -30.5t141.5 -96t98.5 -168t37 -245.5q0 -180 -47.5 -338t-138.5 -274.5t-226 -183.5t-311 -67q-25 0 -43.5 1.5t-30.5 3.5l26 219q20 -4 43 -4q172 0 273.5 90t140.5 256q-35 -25 -86 -39.5t-102 -14.5 q-94 0 -166 33t-121 92.5t-73.5 139.5t-24.5 176zM344 932q0 -92 46 -152.5t132 -60.5q45 0 85 9t77 32q4 20 8 49.5t4 62.5q0 74 -15 125.5t-40 84t-57.5 48t-67.5 15.5q-41 0 -73.5 -18.5t-54 -48t-33 -68.5t-11.5 -78z" />
<glyph unicode=":" horiz-adv-x="432" d="M74 125q0 57 35.5 103t107.5 46t106.5 -46t34.5 -103q0 -55 -34.5 -101.5t-106.5 -46.5t-107.5 46.5t-35.5 101.5zM74 852q0 57 35.5 103t107.5 46t106.5 -46t34.5 -103q0 -55 -34.5 -101.5t-106.5 -46.5t-107.5 46.5t-35.5 101.5z" />
<glyph unicode=";" horiz-adv-x="423" d="M53 139q0 57 37 101.5t107 44.5q72 0 110.5 -51.5t38.5 -131.5q0 -76 -45 -169t-156 -179l-67 92q35 29 65.5 69t34.5 75q-49 4 -87 46t-38 103zM74 852q0 57 35.5 103t107.5 46t106.5 -46t34.5 -103q0 -55 -34.5 -101.5t-106.5 -46.5t-107.5 46.5t-35.5 101.5z" />
<glyph unicode="&#x3c;" d="M45 596v170l883 313l76 -221l-512 -174l532 -192l-70 -228z" />
<glyph unicode="=" d="M45 317v226h959v-226h-959zM45 758v225h959v-225h-959z" />
<glyph unicode="&#x3e;" d="M27 492l532 192l-512 174l78 221l881 -313v-170l-910 -332z" />
<glyph unicode="?" horiz-adv-x="821" d="M-10 1171q33 43 77 83t97 71t116.5 50.5t139.5 19.5q92 0 164.5 -27t123 -73t77 -111.5t26.5 -141.5q0 -61 -15.5 -109t-39 -89t-53 -76t-58.5 -66q-53 -57 -92 -109t-39 -112v-49h-248v86q0 49 14.5 91t37 78t52 67.5t58.5 60.5q49 49 87 99.5t38 121.5q0 63 -41 100.5 t-117 37.5q-55 0 -118.5 -38t-131.5 -124zM231 143q0 66 44 116t114 50q72 0 116 -50t44 -116t-44 -116t-116 -50q-70 0 -114 50.5t-44 115.5z" />
<glyph unicode="@" horiz-adv-x="1476" d="M98 479q0 174 46 329t138.5 271.5t227.5 185t313 68.5q154 0 255.5 -43t161.5 -110.5t85 -150.5t25 -163v-796h-234v49q-41 -35 -97 -52.5t-106 -17.5q-170 0 -270 116t-100 320q0 102 28.5 181t78.5 133.5t115.5 82t139.5 27.5q72 0 123 -22.5t86 -42.5 q0 123 -69.5 199.5t-231.5 76.5q-123 0 -213 -54t-148.5 -143t-87 -205t-28.5 -239q0 -53 8 -116.5t30.5 -127t62.5 -124t103.5 -106.5t153.5 -73.5t211 -27.5q154 0 271.5 19.5t205.5 51.5l54 -223q-80 -29 -227.5 -51.5t-323.5 -22.5q-166 0 -289 39t-210 104.5 t-143.5 149.5t-88 173t-44 176.5t-12.5 158.5zM776 494q0 -119 46 -176.5t118 -57.5q57 0 98 15.5t76 52.5v311q-27 16 -71 37.5t-105 21.5q-78 0 -120 -50t-42 -154z" />
<glyph unicode="A" horiz-adv-x="1245" d="M0 0l492 1366h260l493 -1366h-268l-94 274h-523l-92 -274h-268zM440 506h365l-182 538z" />
<glyph unicode="B" horiz-adv-x="1163" d="M150 0v1366h462q94 0 172 -24.5t135.5 -72.5t89 -117t31.5 -155q0 -92 -41 -159.5t-116 -114.5q104 -39 167.5 -124t63.5 -214q0 -109 -58.5 -207t-176.5 -145q-43 -16 -95.5 -24.5t-101.5 -8.5h-532zM410 233h186q68 0 106.5 6.5t63.5 20.5q43 25 62.5 60.5t19.5 74.5 q0 45 -24.5 88t-71.5 70q-31 16 -72 23.5t-88 7.5h-182v-351zM410 807h127q47 0 87 4t58 14q49 25 71.5 63t22.5 79q0 49 -30.5 91t-90.5 62q-8 2 -25.5 5t-37 4t-41 2.5t-35.5 1.5h-106v-326z" />
<glyph unicode="C" horiz-adv-x="1169" d="M88 678q0 184 50 318t132 223.5t187.5 132.5t216.5 43q90 0 160.5 -17.5t126 -49.5t96.5 -77t71 -98l-192 -162q-10 18 -29.5 46t-51.5 53.5t-76 44t-101 18.5q-66 0 -124 -27.5t-103 -86t-71 -147.5t-26 -214q0 -223 96.5 -343t256.5 -120q117 0 200.5 40t120.5 77 l84 -228q-10 -10 -43 -31.5t-87 -44t-131 -40t-175 -17.5q-129 0 -236.5 45t-186.5 134.5t-122 221.5t-43 306z" />
<glyph unicode="D" horiz-adv-x="1286" d="M150 0v1366h385q74 0 163.5 -12.5t171.5 -48.5q84 -41 146.5 -105.5t103.5 -145.5t61.5 -174.5t20.5 -189.5t-20.5 -189t-62.5 -176t-104.5 -148.5t-146.5 -106.5q-143 -70 -323 -70h-395zM412 246h106q139 0 236 51q92 51 137 156.5t45 224.5q0 117 -41 220t-127 161 q-45 31 -111.5 46t-132.5 15h-112v-874z" />
<glyph unicode="E" horiz-adv-x="1140" d="M150 0v1366h890v-248h-628v-311h520v-248h-520v-311h673v-248h-935z" />
<glyph unicode="F" horiz-adv-x="1042" d="M150 0v1366h882v-248h-620v-323h495v-244h-495v-551h-262z" />
<glyph unicode="G" horiz-adv-x="1245" d="M88 678q0 184 47 318t127 223.5t183.5 132.5t218.5 43q176 0 288.5 -66.5t169.5 -171.5l-180 -166q-14 27 -37.5 55.5t-57.5 52t-79 39t-102 15.5q-59 0 -115.5 -28.5t-99.5 -88t-70 -148.5t-27 -210q0 -111 27 -197t73 -145.5t110.5 -90t142.5 -30.5q82 0 132 9t58 14 v245h-213v236h459v-658q-16 -10 -52 -25.5t-93.5 -29.5t-133.5 -24.5t-172 -10.5q-133 0 -244.5 47.5t-191.5 138.5t-124 222t-44 299z" />
<glyph unicode="H" horiz-adv-x="1341" d="M150 0v1366h262v-541h516v541h262v-1366h-262v578h-516v-578h-262z" />
<glyph unicode="I" horiz-adv-x="563" d="M150 0v1366h262v-1366h-262z" />
<glyph unicode="J" horiz-adv-x="870" d="M41 53l76 219q4 -4 22.5 -15t46 -22.5t62.5 -20.5t71 -9q72 0 114 35.5t42 136.5v989h262v-991q0 -205 -99 -304.5t-288 -99.5q-109 0 -190.5 30t-118.5 52z" />
<glyph unicode="K" horiz-adv-x="1206" d="M150 0v1366h262v-551h137q39 0 67.5 19.5t59.5 91.5l194 440h277l-215 -477q-29 -61 -55.5 -94t-65.5 -56q47 -25 77 -61.5t52 -95.5l231 -582h-284l-168 426q-33 82 -63.5 121t-90.5 39h-153v-586h-262z" />
<glyph unicode="L" horiz-adv-x="1087" d="M150 0v1366h262v-1118h635v-248h-897z" />
<glyph unicode="M" horiz-adv-x="1536" d="M117 0l65 1366h269l333 -971l299 971h271l65 -1366h-260l-37 805l-252 -813h-174l-282 821l-37 -813h-260z" />
<glyph unicode="N" horiz-adv-x="1351" d="M150 0v1366h268l526 -852v852h258v-1366h-229l-563 903v-903h-260z" />
<glyph unicode="O" horiz-adv-x="1376" d="M88 684q0 131 37 259t111.5 228.5t186.5 162t261 61.5q152 0 265.5 -61.5t188 -162t112.5 -228.5t38 -259t-38 -259t-112.5 -228.5t-188 -163t-265.5 -62.5q-150 0 -261.5 62.5t-186 163t-111.5 228.5t-37 259zM352 684q0 -90 21.5 -175t63.5 -150.5t104.5 -104.5 t142.5 -39q82 0 145.5 39t106.5 104.5t64.5 150.5t21.5 175t-21.5 175t-64.5 150.5t-106.5 104.5t-145.5 39q-80 0 -142.5 -39t-104.5 -104.5t-63.5 -150.5t-21.5 -175z" />
<glyph unicode="P" horiz-adv-x="1124" d="M150 0v1366h409q98 0 182 -13.5t162 -52.5q98 -49 145.5 -146t47.5 -208q0 -61 -15.5 -123.5t-44 -116t-71.5 -96.5t-99 -67q-70 -29 -139.5 -40t-140.5 -11h-178v-492h-258zM408 727h145q55 0 101 6t79 23q55 27 80 74t25 100q0 57 -28 106t-83 70q-35 12 -69.5 18 t-94.5 6h-155v-403z" />
<glyph unicode="Q" horiz-adv-x="1396" d="M88 684q0 131 37 259t111.5 228.5t186.5 162t261 61.5q152 0 265.5 -61.5t188 -162t112.5 -228.5t38 -259q0 -92 -18.5 -182t-55.5 -172q98 -86 154.5 -151.5t69.5 -86.5l-150 -153q-10 18 -61 74.5t-131 131.5q-74 -80 -176.5 -127t-235.5 -47q-150 0 -261.5 62.5 t-186 163t-111.5 228.5t-37 259zM352 684q0 -90 21.5 -175t63.5 -150.5t104.5 -104.5t142.5 -39q63 0 114.5 22.5t92.5 63.5q-41 29 -99.5 57.5t-113.5 51.5l82 192q66 -23 126 -53.5t107 -63.5q29 92 29 199q0 90 -21.5 175t-64.5 150.5t-106.5 104.5t-145.5 39 q-80 0 -142.5 -39t-104.5 -104.5t-63.5 -150.5t-21.5 -175z" />
<glyph unicode="R" horiz-adv-x="1204" d="M150 0v1366h477q80 0 161.5 -18.5t148.5 -64.5t107.5 -124t40.5 -198q0 -104 -47 -192.5t-145 -147.5q57 -23 93 -76t69 -172l102 -373h-272l-103 342q-14 45 -26.5 78t-30.5 53.5t-46 29.5t-73 9h-198v-512h-258zM408 748h184q233 0 233 186q0 98 -55 146t-178 48h-184 v-380z" />
<glyph unicode="S" horiz-adv-x="1067" d="M61 106l111 228q18 -16 51 -39t77 -43.5t100.5 -33.5t123.5 -13q98 0 154.5 43t56.5 114q0 43 -10 75t-42 59.5t-90 53t-155 58.5q-88 29 -155.5 64t-113.5 82t-69.5 110.5t-23.5 149.5q0 82 28.5 151.5t86 120.5t143.5 80t198 29q94 0 169 -18.5t130.5 -46t93.5 -60.5 t62 -62l-137 -182q-20 25 -54 49.5t-77 45t-93.5 33.5t-103.5 13q-106 0 -149 -42t-43 -101q0 -37 12 -62.5t42 -48t80 -44t128 -50.5q106 -39 183 -79t126 -91t71.5 -117.5t22.5 -158.5q0 -100 -41 -176t-107.5 -126.5t-150.5 -75t-170 -24.5q-94 0 -170.5 16.5t-136 38 t-99.5 44t-59 36.5z" />
<glyph unicode="T" horiz-adv-x="1056" d="M10 1118v248h1037v-248h-388v-1118h-262v1118h-387z" />
<glyph unicode="U" horiz-adv-x="1337" d="M141 469v897h262v-870q0 -123 69 -202t198 -79q127 0 194.5 79t67.5 202v870h262v-897q0 -117 -41 -209t-112.5 -156.5t-167 -98.5t-205.5 -34q-111 0 -206 34t-167 98.5t-113 156.5t-41 209z" />
<glyph unicode="V" horiz-adv-x="1224" d="M0 1366h281l346 -1034l340 1034h258l-477 -1366h-244z" />
<glyph unicode="W" horiz-adv-x="1554" d="M20 1366h261l155 -922l221 922h240l231 -922l154 922h252l-260 -1366h-260l-242 983l-231 -983h-262z" />
<glyph unicode="X" horiz-adv-x="1126" d="M0 0l422 711l-393 655h297l237 -416l236 416h297l-391 -655l421 -711h-292l-271 471l-270 -471h-293z" />
<glyph unicode="Y" horiz-adv-x="1130" d="M0 1366h293l280 -543l269 543h288l-430 -817v-549h-262v549z" />
<glyph unicode="Z" horiz-adv-x="1101" d="M51 0v225l662 893h-607v248h928v-233l-655 -885h668v-248h-996z" />
<glyph unicode="[" horiz-adv-x="614" d="M129 -293v1800h455v-225h-213v-1350h213v-225h-455z" />
<glyph unicode="\" horiz-adv-x="1056" d="M0 1460l193 109l864 -1518l-197 -117z" />
<glyph unicode="]" horiz-adv-x="614" d="M31 -68h215v1350h-215v225h454v-1800h-454v225z" />
<glyph unicode="^" horiz-adv-x="1073" d="M119 659l321 707h189l327 -676l-227 -92l-194 436l-181 -454z" />
<glyph unicode="_" horiz-adv-x="1024" d="M0 -307h1024v-144h-1024v144z" />
<glyph unicode="`" horiz-adv-x="860" d="M174 1331l121 170l391 -289l-68 -110z" />
<glyph unicode="a" horiz-adv-x="999" d="M66 291q0 74 28.5 130t77.5 95t112.5 63.5t133.5 36.5q49 10 107.5 15.5t97.5 9.5v14q0 82 -42 117t-116 35q-43 0 -82 -10.5t-69.5 -25.5t-54 -30.5t-38.5 -27.5l-84 178q16 14 50 34.5t82 40t108.5 33t130.5 13.5q82 0 149.5 -21.5t116.5 -67.5t77 -117t28 -171v-635 h-234l-10 74q-41 -45 -104.5 -71t-139.5 -26q-63 0 -121.5 21.5t-103.5 61.5t-72.5 98.5t-27.5 132.5zM313 297q0 -49 36 -79t102 -30q49 0 95 20.5t79 51.5v201q-41 -2 -84 -7t-82 -14q-82 -16 -114 -56t-32 -87z" />
<glyph unicode="b" horiz-adv-x="1075" d="M127 61v1305h254v-377q41 10 79 16.5t87 6.5q117 0 204 -43t143 -114t85 -160t29 -183q0 -143 -41 -244.5t-111 -166t-163 -94.5t-195 -30q-96 0 -188.5 23t-182.5 61zM381 211q27 -6 54.5 -12t51.5 -6q121 0 197 79.5t76 233.5q0 145 -74 218t-180 73q-57 0 -125 -23 v-563z" />
<glyph unicode="c" horiz-adv-x="948" d="M68 489q0 131 36.5 229.5t99 164t144.5 97.5t172 32q86 0 150.5 -22.5t111.5 -56.5t77 -75t48 -78l-188 -127q-31 53 -77 99.5t-120 46.5q-82 0 -142.5 -73t-60.5 -226q0 -147 61.5 -225t178.5 -78q55 0 99 11t77 26.5t54.5 32t31.5 26.5l74 -209q-14 -10 -45 -28.5 t-77 -36t-107.5 -30t-139.5 -12.5q-90 0 -173 31t-146.5 94.5t-101 159.5t-37.5 227z" />
<glyph unicode="d" horiz-adv-x="1083" d="M68 498q0 96 28.5 188t87 165t146.5 117t207 44q78 0 168 -29v383h251v-1366h-231l-10 76q-35 -39 -92.5 -69t-135.5 -30q-102 0 -180 43t-131 115t-80.5 166t-27.5 197zM315 504q0 -61 13.5 -117.5t41 -98.5t69.5 -67.5t100 -25.5q47 0 96 25.5t70 60.5v487 q-74 29 -138 29q-66 0 -112.5 -24.5t-77.5 -66.5t-46.5 -94.5t-15.5 -107.5z" />
<glyph unicode="e" horiz-adv-x="1021" d="M68 494q0 125 35.5 221t98 161.5t145.5 100.5t177 35t174 -31t138.5 -95.5t92.5 -167t34 -243.5v-45h-639q8 -125 77.5 -180t180.5 -55q51 0 96 9t80 23.5t59.5 28.5t36.5 27l68 -207q-14 -10 -46 -27.5t-79 -33t-110.5 -27t-139.5 -11.5q-96 0 -183.5 31t-153 95.5 t-104 160.5t-38.5 230zM330 612h375q-4 51 -21.5 89t-43.5 61.5t-55.5 35t-60.5 11.5q-66 0 -125 -49t-69 -148z" />
<glyph unicode="f" horiz-adv-x="651" d="M31 782v205h131v53q0 96 24.5 163t68.5 109t103.5 61.5t128.5 19.5q92 0 152.5 -17.5t71.5 -23.5l-29 -211q-12 6 -48 17t-95 11q-53 0 -89 -31.5t-36 -103.5v-47h213v-205h-211v-782h-254v782h-131z" />
<glyph unicode="g" horiz-adv-x="1077" d="M68 506q0 100 31.5 192.5t96 162t165 110.5t237.5 41q106 0 202.5 -11.5t151.5 -21.5v-954q0 -209 -115.5 -320t-332.5 -111q-76 0 -141.5 9.5t-116.5 22t-85 24.5t-44 18l53 223q51 -29 135 -53t178 -24q109 0 161 41t52 106v57q-39 -10 -71.5 -14t-67.5 -4 q-121 0 -212 40t-152.5 108.5t-93 160.5t-31.5 197zM315 506q0 -127 70 -207t209 -80q37 0 60.5 8.5t41.5 18.5v545q-27 4 -47 6t-49 2q-74 0 -128 -23.5t-89 -64.5t-51.5 -94.5t-16.5 -110.5z" />
<glyph unicode="h" horiz-adv-x="1122" d="M127 0v1366h254v-444q47 37 111.5 63.5t156.5 26.5q94 0 162 -31t110 -86t61 -134t19 -175v-586h-253v567q0 123 -48.5 177.5t-109.5 54.5q-31 0 -61.5 -9.5t-58.5 -23.5t-50.5 -31.5t-38.5 -32.5v-702h-254z" />
<glyph unicode="i" horiz-adv-x="505" d="M100 1225q0 53 38 98t116 45q76 0 114 -45t38 -98q0 -55 -38 -100.5t-114 -45.5q-78 0 -116 45t-38 101zM127 0v987h252v-987h-252z" />
<glyph unicode="j" horiz-adv-x="526" d="M-8 -217q86 57 119.5 116.5t33.5 139.5v948h254v-948q0 -170 -70.5 -276.5t-224.5 -178.5zM123 1225q0 53 38 98t113 45q74 0 112 -45t38 -98q0 -55 -38 -100.5t-112 -45.5q-76 0 -113.5 45t-37.5 101z" />
<glyph unicode="k" horiz-adv-x="1024" d="M127 0v1366h254v-713h61q37 0 66 21.5t59 93.5l90 219h275l-119 -276q-41 -92 -115 -140q45 -23 75 -54.5t50 -80.5l181 -436h-277l-113 266q-39 92 -68.5 129t-84.5 37h-80v-432h-254z" />
<glyph unicode="l" horiz-adv-x="630" d="M127 240v1126h254v-1077q0 -53 21.5 -72.5t60.5 -19.5q23 0 43 5t39 13l45 -192q-16 -10 -73.5 -28t-127.5 -18q-53 0 -101 14.5t-84 45.5t-56.5 81t-20.5 122z" />
<glyph unicode="m" horiz-adv-x="1714" d="M127 0v987h233l11 -74q45 41 111.5 70t133.5 29q70 0 138.5 -21.5t128.5 -75.5q68 41 148.5 69t172.5 28q111 0 185.5 -29t119.5 -82t64.5 -131t19.5 -178v-592h-252v580q0 98 -36.5 158.5t-137.5 60.5q-29 0 -58.5 -9.5t-56 -21.5t-47 -25.5t-32.5 -23.5q4 -25 8 -55.5 t4 -67.5v-596h-254v580q0 45 -7 85t-25.5 69.5t-48 47t-75.5 17.5q-57 0 -108 -31t-86 -66v-702h-254z" />
<glyph unicode="n" horiz-adv-x="1130" d="M127 0v987h231l13 -78q59 49 134 76t150 27q78 0 143.5 -23.5t112.5 -75t73 -133.5t26 -196v-584h-254v563q0 113 -47 174.5t-131 61.5q-59 0 -109.5 -31t-87.5 -68v-700h-254z" />
<glyph unicode="o" horiz-adv-x="1081" d="M68 498q0 96 29.5 188t88 165t147.5 117t208 44t207 -44t147 -117t89 -165t30 -188t-30 -189.5t-88 -167t-147.5 -119t-207.5 -45.5q-119 0 -208 45.5t-147.5 119t-88 166.5t-29.5 190zM317 498q0 -63 14.5 -117.5t42 -95.5t69.5 -64.5t98 -23.5q55 0 96 23.5t69.5 64.5 t43 95.5t14.5 117.5q0 61 -14.5 116.5t-43 95.5t-69.5 63.5t-96 23.5t-96.5 -23.5t-70 -63.5t-43 -95.5t-14.5 -116.5z" />
<glyph unicode="p" horiz-adv-x="1077" d="M127 -387v1374h231l13 -74q35 35 93 67t138 32q100 0 177 -43t128 -114t77 -165t26 -194q0 -96 -30 -189.5t-90.5 -166t-154.5 -118t-223 -45.5q-68 0 -131 29v-393h-254zM379 227q59 -28 115 -28h4q68 0 118 24.5t82.5 66.5t48 94.5t15.5 107.5q0 57 -13.5 112t-40 98 t-66.5 70t-93 27t-100.5 -30t-69.5 -64v-478z" />
<glyph unicode="q" horiz-adv-x="1077" d="M68 496q0 100 31.5 193t96 165t165 115t237.5 43q76 0 165 -9.5t189 -23.5v-1366h-256v383q-39 -10 -71.5 -14.5t-67.5 -4.5q-121 0 -212 42t-152.5 113t-93 165t-31.5 199zM315 496q0 -63 17.5 -117.5t52.5 -94.5t87 -63.5t122 -23.5q37 0 59.5 7t42.5 17v570 q-27 4 -47 6t-49 2q-74 0 -128 -25.5t-89 -67.5t-51.5 -97.5t-16.5 -112.5z" />
<glyph unicode="r" horiz-adv-x="729" d="M127 0v987h231l17 -104q16 20 41.5 42.5t58.5 41t69 30t74 11.5q35 0 68 -5.5t43 -9.5l-37 -221q-16 4 -38.5 6t-47.5 2q-72 0 -129 -37.5t-96 -78.5v-664h-254z" />
<glyph unicode="s" horiz-adv-x="944" d="M57 109l93 194q23 -20 57.5 -42.5t77.5 -41t94 -31t108 -12.5q92 0 128 26.5t36 71.5q0 20 -8 39t-32.5 34t-69.5 30.5t-119 32.5q-74 16 -133.5 39.5t-101.5 59.5t-63.5 86t-21.5 122q0 131 97.5 213t296.5 82q80 0 143 -12.5t110.5 -30t78 -34.5t44.5 -30l-86 -184 q-39 31 -114.5 63.5t-173.5 32.5q-90 0 -122 -28.5t-32 -69.5q0 -23 9 -39t32 -28.5t61.5 -24t98.5 -23.5q84 -16 148.5 -40.5t107.5 -62.5t65.5 -90t22.5 -124q0 -80 -32 -138.5t-86 -96.5t-127 -56.5t-157 -18.5t-153.5 13.5t-122.5 33t-92 42t-62 43.5z" />
<glyph unicode="t" horiz-adv-x="716" d="M29 782v205h139v256h252v-256h227v-205h-227v-501q0 -47 22.5 -65.5t53.5 -18.5q76 0 131 43l65 -183q-47 -35 -117.5 -57.5t-148.5 -22.5q-131 0 -194.5 74t-63.5 178v553h-139z" />
<glyph unicode="u" horiz-adv-x="1126" d="M121 399v588h254v-561q0 -102 37 -165.5t127 -63.5q74 0 125 29.5t81 56.5v704h254v-987h-233l-8 78q-68 -57 -140.5 -77.5t-142.5 -20.5q-174 0 -264 104t-90 315z" />
<glyph unicode="v" horiz-adv-x="1036" d="M0 987h270l258 -655l250 655h258l-401 -987h-221z" />
<glyph unicode="w" horiz-adv-x="1394" d="M0 987h264l170 -625l160 625h205l162 -625l169 625h265l-324 -987h-205l-170 643l-166 -643h-206z" />
<glyph unicode="x" horiz-adv-x="993" d="M0 987h287l215 -305l217 305h260l-342 -481l356 -506h-284l-220 311l-215 -311h-268l352 487z" />
<glyph unicode="y" horiz-adv-x="1030" d="M8 987h273l274 -758q31 74 61.5 166t59.5 191.5t55.5 202t48.5 198.5h250q-76 -297 -162 -544.5t-170 -417.5q-39 -78 -81 -152t-109.5 -132t-169.5 -94t-262 -38l-23 227q37 0 84 4t93 16.5t87 34t68 58.5q8 10 14.5 20.5t14.5 26.5z" />
<glyph unicode="z" horiz-adv-x="989" d="M70 0v182l536 600h-514v205h807v-192l-528 -592h544v-203h-845z" />
<glyph unicode="{" horiz-adv-x="571" d="M31 608v152q82 12 119.5 51t37.5 115v264q0 156 80 229.5t254 77.5l19 -178q-86 -4 -108.5 -46t-22.5 -126v-221q0 -184 -131 -242q68 -35 99.5 -91t31.5 -151v-225q0 -35 4 -64.5t17 -52t39 -36t71 -15.5l-19 -176q-174 2 -254 77t-80 230v262q0 76 -37.5 115t-119.5 51 z" />
<glyph unicode="|" horiz-adv-x="507" d="M137 -152v1663h232v-1663h-232z" />
<glyph unicode="}" horiz-adv-x="563" d="M20 49q80 2 107 42t27 126v225q0 94 31.5 150.5t99.5 91.5q-131 57 -131 242v221q0 47 -7.5 77.5t-22.5 50t-41 29t-63 15.5l21 178q174 -4 254 -77.5t80 -229.5v-264q0 -76 38 -115t119 -51v-152q-82 -12 -119.5 -51t-37.5 -115v-262q0 -305 -334 -307z" />
<glyph unicode="~" horiz-adv-x="876" d="M-4 1036q18 147 90 221t184 74q61 0 105.5 -17.5t78 -38t61.5 -37.5t56 -17q31 0 58.5 20.5t38.5 93.5h211q-6 -123 -52 -192q-45 -72 -103.5 -92.5t-107.5 -20.5q-102 0 -184 55q-82 57 -129 58q-37 0 -61.5 -23.5t-32.5 -83.5h-213z" />
<glyph unicode="&#xa1;" horiz-adv-x="493" d="M90 842q0 -66 44 -116t116 -50q70 0 113.5 50t43.5 116t-43.5 116t-113.5 50q-72 0 -116 -50.5t-44 -115.5zM123 -380h258v933h-258v-933z" />
<glyph unicode="&#xa2;" d="M162 686q0 68 19.5 133.5t59.5 119.5t101 92t145 50v285h164v-283q49 -6 103.5 -23.5t119.5 -51.5l-73 -185q-72 35 -122 47.5t-97 12.5q-45 0 -79 -17.5t-56.5 -46t-34 -64.5t-11.5 -71t11.5 -72t35 -67.5t57.5 -50t77 -19.5q41 0 88 11.5t121 50.5l81 -183 q-66 -39 -119 -56t-102 -24v-297h-164v302q-82 14 -143 54t-101 96t-60.5 122.5t-20.5 134.5z" />
<glyph unicode="&#xa3;" d="M59 504v223h138v213q0 106 31.5 188t87 138.5t129 85t159.5 28.5q129 0 228.5 -63.5t158.5 -188.5l-200 -143q-45 82 -90.5 118t-96.5 36q-61 0 -107 -46t-46 -165v-201h387v-223h-387v-256h532v-248h-786v504h-138z" />
<glyph unicode="&#xa4;" horiz-adv-x="1204" d="M25 336l135 135q-29 53 -45.5 111.5t-16.5 124.5t16.5 124t45.5 111l-135 135l196 197l139 -137q53 27 110.5 41t121.5 14q61 0 119.5 -15.5t111.5 -41.5l140 139l196 -197l-135 -135q29 -53 45 -111.5t16 -123.5q0 -63 -16 -123t-45 -113l135 -135l-196 -197l-138 140 q-53 -27 -110.5 -42.5t-122.5 -15.5q-63 0 -120.5 15.5t-111.5 42.5l-139 -140zM354 707q0 -51 18.5 -95.5t50.5 -77t76 -52t93 -19.5q61 0 106 25.5t74 62.5t43 79t14 77q0 63 -22.5 110t-57 76t-76.5 43t-81 14q-49 0 -93 -18.5t-76 -51t-50.5 -77.5t-18.5 -96z" />
<glyph unicode="&#xa5;" horiz-adv-x="997" d="M-35 1356h277l268 -537l252 537h270l-327 -649h208v-222h-284v-485h-250v485h-287v222h207z" />
<glyph unicode="&#xa6;" horiz-adv-x="534" d="M143 -152v631h244v-631h-244zM143 879v632h244v-632h-244z" />
<glyph unicode="&#xa7;" horiz-adv-x="956" d="M100 -166l111 197q53 -45 113.5 -79t119.5 -34t84 28.5t25 63.5q0 33 -14.5 57.5t-43 48t-69.5 49t-92 60.5q-100 66 -156.5 139.5t-56.5 194.5q0 109 52 179.5t138 117.5q-63 57 -92 116.5t-29 141.5q0 133 90.5 206t237.5 73q98 0 180 -33t156 -107l-131 -174 q-35 37 -87 69t-110 32q-39 0 -63.5 -21.5t-24.5 -60.5q0 -53 48.5 -97.5t113.5 -91.5q43 -31 88 -66.5t82 -78.5t60.5 -96.5t23.5 -120.5q0 -96 -44 -166t-122 -121q53 -47 88 -104.5t35 -149.5q0 -74 -30.5 -129t-82 -94t-115 -58.5t-128.5 -19.5q-117 0 -203 38t-152 91z M371 582q0 -55 40 -100.5t126 -100.5q39 29 54 64.5t15 70.5q0 43 -32.5 92t-118.5 115q-49 -23 -66.5 -62.5t-17.5 -78.5z" />
<glyph unicode="&#xa8;" horiz-adv-x="905" d="M90 1282q0 49 36 91t107 42q70 0 105 -42t35 -91q0 -51 -35 -93t-105 -42q-72 0 -107.5 42t-35.5 93zM516 1282q0 49 36 91t107 42q70 0 105 -42t35 -91q0 -51 -35 -93t-105 -42q-72 0 -107.5 42t-35.5 93z" />
<glyph unicode="&#xa9;" horiz-adv-x="1587" d="M90 608q0 143 44 279.5t133 244t220 173t308 65.5q174 0 306 -65.5t220 -173t132 -244t44 -279.5t-44 -281.5t-132 -246t-220 -173t-306 -65.5q-176 0 -307.5 65.5t-220.5 173t-133 246t-44 281.5zM264 608q0 -117 34 -225.5t101.5 -192.5t167 -134t228.5 -50t228 50 t165.5 134t100.5 192.5t34 225.5q0 115 -34 223.5t-100.5 192.5t-165.5 134t-228 50q-131 0 -230.5 -50t-166 -134t-100.5 -192.5t-34 -223.5zM395 604q0 119 34 208t90 147.5t130 87t154 28.5q129 0 212 -54t134 -163l-172 -94q-31 63 -69 99t-101 36q-39 0 -76 -17.5 t-64.5 -54t-45 -92t-17.5 -131.5q0 -135 62.5 -212t150.5 -77q47 0 88 25t84 102l168 -100q-66 -117 -149.5 -161t-196.5 -44q-92 0 -169 32t-132 92.5t-85 146.5t-30 196z" />
<glyph unicode="&#xaa;" horiz-adv-x="737" d="M51 829q0 82 43 131.5t106.5 77t134.5 37.5t126 15v20q0 41 -29 67.5t-70 26.5q-43 0 -84.5 -18.5t-89.5 -52.5l-79 129q72 55 140 76.5t130 21.5q129 0 202.5 -65.5t73.5 -215.5v-461h-176l-6 58q-41 -35 -86 -53.5t-94 -18.5q-104 0 -173 59.5t-69 165.5zM240 840 q0 -78 98 -78q41 0 71.5 14.5t53.5 36.5v133q-29 -2 -59.5 -5t-59.5 -9q-59 -12 -81.5 -37t-22.5 -55z" />
<glyph unicode="&#xab;" horiz-adv-x="1118" d="M29 512l403 434l168 -139l-278 -283l305 -276l-156 -156zM473 512l404 434l165 -139l-278 -283l307 -276l-156 -156z" />
<glyph unicode="&#xac;" d="M41 831v224h958v-756h-221v532h-737z" />
<glyph unicode="&#xad;" horiz-adv-x="643" d="M74 412v243h493v-243h-493z" />
<glyph unicode="&#xae;" horiz-adv-x="1589" d="M92 608q0 143 44 279.5t133 244t220.5 173t307.5 65.5q174 0 305 -65.5t219 -173t132 -244t44 -279.5t-44 -281.5t-132 -246t-220 -173t-306 -65.5t-306.5 65.5t-220.5 173t-132 246t-44 281.5zM264 608q0 -117 34 -225.5t101.5 -192.5t167 -134t230.5 -50q129 0 227 50 t165.5 134t101.5 192.5t34 225.5q0 115 -34 223.5t-100.5 192.5t-165.5 134t-228 50q-131 0 -230.5 -50t-167 -134t-101.5 -192.5t-34 -223.5zM502 209v831h311q166 0 246 -66.5t80 -195.5q0 -102 -47.5 -161.5t-118.5 -84.5l174 -323h-203l-158 301h-94v-301h-190zM692 684 h107q78 0 110.5 20.5t32.5 79.5q0 49 -29.5 65.5t-105.5 16.5h-115v-182z" />
<glyph unicode="&#xaf;" horiz-adv-x="905" d="M78 1184v182h706v-182h-706z" />
<glyph unicode="&#xb0;" horiz-adv-x="811" d="M82 1061q0 74 28.5 131t74.5 95t104.5 58.5t116.5 20.5q57 0 115.5 -20.5t104.5 -59.5t74.5 -96t28.5 -131t-28.5 -131.5t-74.5 -95t-103.5 -58t-114.5 -20.5q-59 0 -117 20.5t-105 59t-75.5 96t-28.5 131.5zM295 1059q0 -63 35 -95t76 -32t75.5 32t34.5 95 q0 66 -35 97.5t-75 31.5q-41 0 -76 -32t-35 -97z" />
<glyph unicode="&#xb1;" d="M47 0v225h959v-225h-959zM47 729v225h373v412h213v-412h373v-225h-373v-405h-213v405h-373z" />
<glyph unicode="&#xb2;" horiz-adv-x="645" d="M68 1290q6 6 30.5 21.5t60.5 31t81 26.5t92 11q111 0 176 -55t65 -151q0 -63 -29.5 -106.5t-82.5 -84.5l-176 -131h290v-162h-485v131q0 41 10.5 73t61.5 69l147 112q29 23 44.5 39t15.5 45q0 35 -20.5 47.5t-49.5 12.5q-53 0 -96 -25t-66 -41z" />
<glyph unicode="&#xb3;" horiz-adv-x="645" d="M76 743l63 142q35 -29 77 -48.5t89 -19.5q100 0 101 80q0 41 -26 61.5t-91 20.5q-16 0 -30.5 -1t-29.5 -3v108q20 29 49 58.5t66 60.5h-238v160h451v-158q-94 -51 -147 -114q80 -10 131 -59.5t51 -135.5q0 -117 -79 -174t-198 -57q-74 0 -136 22.5t-103 56.5z" />
<glyph unicode="&#xb4;" horiz-adv-x="905" d="M188 1212l392 289l120 -170l-444 -229z" />
<glyph unicode="&#xb5;" horiz-adv-x="1132" d="M121 -387v1374h241v-600q0 -84 39 -142.5t127 -58.5q61 0 110.5 30t68.5 85q6 14 8 35.5l4 43t2 40v31.5v528h240v-707q0 -53 13 -73.5t40 -20.5q20 0 57 10l27 -180q-23 -10 -67 -20.5t-79 -10.5q-68 0 -111.5 34t-60.5 100q-45 -68 -108.5 -101t-139.5 -33 q-57 0 -107 21.5t-79 54.5v-440h-225z" />
<glyph unicode="&#xb6;" horiz-adv-x="1032" d="M31 938q0 92 31.5 171t86 135t126 89t149.5 33h174v-1663h-209v813q-80 8 -145.5 46t-113.5 94.5t-73.5 129t-25.5 152.5zM690 -297v1663h213v-1663h-213z" />
<glyph unicode="&#xb7;" horiz-adv-x="667" d="M190 756q0 57 36 103t108 46t106.5 -46t34.5 -103q0 -55 -34.5 -101.5t-106.5 -46.5t-108 46t-36 102z" />
<glyph unicode="&#xb8;" horiz-adv-x="905" d="M262 -371l121 281h225l-166 -281h-180z" />
<glyph unicode="&#xb9;" horiz-adv-x="645" d="M104 1210l258 152h144v-672h-191v447l-133 -74z" />
<glyph unicode="&#xba;" horiz-adv-x="802" d="M59 983q0 70 21.5 137.5t63.5 120.5t106.5 86t150.5 33t150.5 -33t107.5 -86t64.5 -120.5t21.5 -137.5t-21.5 -137.5t-64.5 -121.5t-107.5 -87t-150.5 -33q-88 0 -152.5 33t-106.5 87t-62.5 121.5t-20.5 137.5zM262 983q0 -82 34 -140.5t105 -58.5q72 0 106 58.5 t34 140.5q0 84 -34 143.5t-104 59.5q-72 0 -106.5 -59.5t-34.5 -143.5z" />
<glyph unicode="&#xbb;" horiz-adv-x="1116" d="M47 248l305 276l-278 283l168 139l401 -434l-440 -420zM489 248l308 276l-279 283l166 139l403 -434l-444 -420z" />
<glyph unicode="&#xbc;" horiz-adv-x="1585" d="M4 1210l258 152h144v-672h-191v447l-133 -74zM76 119l1273 1249l138 -143l-1280 -1252zM918 145v150l313 377h174v-383h80v-144h-80v-145h-188v145h-299zM1071 289h146v176z" />
<glyph unicode="&#xbd;" horiz-adv-x="1585" d="M34 1210l258 152h144v-672h-191v447l-133 -74zM37 119l1273 1249l138 -143l-1280 -1252zM986 610q6 6 30.5 21.5t60.5 31t81 26.5t92 11q111 0 176 -55t65 -151q0 -63 -29.5 -106.5t-82.5 -84.5l-176 -131h290v-162h-485v131q0 41 10.5 73t61.5 69l147 112q29 23 44.5 39 t15.5 45q0 35 -20.5 47.5t-49.5 12.5q-53 0 -96 -25t-66 -41z" />
<glyph unicode="&#xbe;" horiz-adv-x="1585" d="M90 743l63 142q35 -29 77 -48.5t89 -19.5q100 0 101 80q0 41 -26 61.5t-91 20.5q-16 0 -30.5 -1t-29.5 -3v108q20 29 49 58.5t66 60.5h-238v160h451v-158q-94 -51 -147 -114q80 -10 131 -59.5t51 -135.5q0 -117 -79 -174t-198 -57q-74 0 -136 22.5t-103 56.5zM125 119 l1273 1249l138 -143l-1280 -1252zM902 145v150l313 377h174v-383h80v-144h-80v-145h-188v145h-299zM1055 289h146v176z" />
<glyph unicode="&#xbf;" horiz-adv-x="864" d="M32 -51q0 61 15.5 109t39 89t53 76t58.5 66q53 57 92 109t39 112v49h248v-86q0 -49 -14.5 -91t-37 -78t-52 -67.5t-58.5 -60.5q-49 -49 -87 -99.5t-38 -121.5q0 -63 41 -100.5t117 -37.5q55 0 118.5 38t131.5 124l155 -159q-33 -43 -77 -83t-97 -71t-116.5 -50 t-139.5 -19q-92 0 -164.5 26.5t-123 72.5t-77 111.5t-26.5 141.5zM294 848q0 66 44 116t116 50q70 0 114 -50.5t44 -115.5q0 -66 -44 -116t-114 -50q-72 0 -116 50t-44 116z" />
<glyph unicode="&#xc0;" horiz-adv-x="1245" d="M0 0l492 1366h260l493 -1366h-268l-94 274h-523l-92 -274h-268zM338 1671l121 170l391 -289l-68 -110zM440 506h365l-182 538z" />
<glyph unicode="&#xc1;" horiz-adv-x="1245" d="M0 0l492 1366h260l493 -1366h-268l-94 274h-523l-92 -274h-268zM399 1552l392 289l120 -170l-444 -229zM440 506h365l-182 538z" />
<glyph unicode="&#xc2;" horiz-adv-x="1245" d="M0 0l492 1366h260l493 -1366h-268l-94 274h-523l-92 -274h-268zM297 1546l236 267h188l232 -265l-131 -92l-197 197l-197 -199zM440 506h365l-182 538z" />
<glyph unicode="&#xc3;" horiz-adv-x="1245" d="M0 0l492 1366h260l493 -1366h-268l-94 274h-523l-92 -274h-268zM223 1524q37 104 100.5 167.5t135.5 63.5q41 0 79.5 -15.5t85.5 -45.5q43 -29 72 -42.5t51 -13.5q23 0 51.5 24t61.5 105l141 -75q-29 -104 -96.5 -169t-140.5 -65q-43 0 -83 15.5t-87 46.5 q-41 29 -65.5 42t-47.5 13t-54.5 -23.5t-64.5 -105.5zM440 506h365l-182 538z" />
<glyph unicode="&#xc4;" horiz-adv-x="1245" d="M0 0l492 1366h260l493 -1366h-268l-94 274h-523l-92 -274h-268zM268 1622q0 49 36 91t107 42q70 0 105 -42t35 -91q0 -51 -35 -93t-105 -42q-72 0 -107.5 42t-35.5 93zM440 506h365l-182 538zM694 1622q0 49 36 91t107 42q70 0 105 -42t35 -91q0 -51 -35 -93t-105 -42 q-72 0 -107.5 42t-35.5 93z" />
<glyph unicode="&#xc5;" horiz-adv-x="1245" d="M0 0l492 1366h260l493 -1366h-268l-94 274h-523l-92 -274h-268zM412 1645q0 41 13 80.5t39.5 71.5t66.5 51.5t94 19.5q53 0 94 -19.5t67.5 -50.5t40 -70.5t13.5 -80.5t-13.5 -81t-40 -72t-67.5 -51.5t-94 -19.5t-93.5 19.5t-67 50.5t-39.5 71t-13 81zM440 506h365 l-182 538zM545 1647q0 -41 21.5 -68t58.5 -27q39 0 60.5 27t21.5 68t-21.5 67.5t-60.5 26.5q-37 0 -58.5 -26.5t-21.5 -67.5z" />
<glyph unicode="&#xc6;" horiz-adv-x="1857" d="M0 0l791 1366h966v-248h-594v-309h484v-246h-484v-315h639v-248h-901v360h-397l-209 -360h-295zM625 594h276v489z" />
<glyph unicode="&#xc7;" horiz-adv-x="1169" d="M88 678q0 184 50 318t132 223.5t187.5 132.5t216.5 43q90 0 160.5 -17.5t126 -49.5t96.5 -77t71 -98l-192 -162q-10 18 -29.5 46t-51.5 53.5t-76 44t-101 18.5q-66 0 -124 -27.5t-103 -86t-71 -147.5t-26 -214q0 -223 96.5 -343t256.5 -120q117 0 200.5 40t120.5 77 l84 -228q-10 -10 -43 -31.5t-87 -44t-131 -40t-175 -17.5q-129 0 -236.5 45t-186.5 134.5t-122 221.5t-43 306zM467 -371l121 281h225l-166 -281h-180z" />
<glyph unicode="&#xc8;" horiz-adv-x="1140" d="M150 0v1366h890v-248h-628v-311h520v-248h-520v-311h673v-248h-935zM315 1671l121 170l391 -289l-68 -110z" />
<glyph unicode="&#xc9;" horiz-adv-x="1140" d="M150 0v1366h890v-248h-628v-311h520v-248h-520v-311h673v-248h-935zM419 1552l392 289l120 -170l-444 -229z" />
<glyph unicode="&#xca;" horiz-adv-x="1140" d="M150 0v1366h890v-248h-628v-311h520v-248h-520v-311h673v-248h-935zM270 1546l236 267h188l232 -265l-131 -92l-197 197l-197 -199z" />
<glyph unicode="&#xcb;" horiz-adv-x="1140" d="M150 0v1366h890v-248h-628v-311h520v-248h-520v-311h673v-248h-935zM246 1622q0 49 36 91t107 42q70 0 105 -42t35 -91q0 -51 -35 -93t-105 -42q-72 0 -107.5 42t-35.5 93zM672 1622q0 49 36 91t107 42q70 0 105 -42t35 -91q0 -51 -35 -93t-105 -42q-72 0 -107.5 42 t-35.5 93z" />
<glyph unicode="&#xcc;" horiz-adv-x="563" d="M14 1671l121 170l391 -289l-68 -110zM150 0v1366h262v-1366h-262z" />
<glyph unicode="&#xcd;" horiz-adv-x="563" d="M77 1552l392 289l120 -170l-444 -229zM150 0v1366h262v-1366h-262z" />
<glyph unicode="&#xce;" horiz-adv-x="563" d="M-37 1546l236 267h188l232 -265l-131 -92l-197 197l-197 -199zM150 0v1366h262v-1366h-262z" />
<glyph unicode="&#xcf;" horiz-adv-x="563" d="M-55 1622q0 49 36 91t107 42q70 0 105 -42t35 -91q0 -51 -35 -93t-105 -42q-72 0 -107.5 42t-35.5 93zM150 0v1366h262v-1366h-262zM371 1622q0 49 36 91t107 42q70 0 105 -42t35 -91q0 -51 -35 -93t-105 -42q-72 0 -107.5 42t-35.5 93z" />
<glyph unicode="&#xd0;" horiz-adv-x="1286" d="M0 596v215h150v555h385q74 0 163.5 -12.5t171.5 -48.5q84 -41 146.5 -105.5t103.5 -145.5t61.5 -174.5t20.5 -189.5t-20.5 -189t-62.5 -176t-104.5 -148.5t-146.5 -106.5q-143 -70 -323 -70h-395v596h-150zM412 246h106q139 0 236 51q92 51 137 156.5t45 224.5 q0 117 -41 220t-127 161q-45 31 -111.5 46t-132.5 15h-112v-309h301v-215h-301v-350z" />
<glyph unicode="&#xd1;" horiz-adv-x="1351" d="M150 0v1366h268l526 -852v852h258v-1366h-229l-563 903v-903h-260zM297 1524q37 104 100.5 167.5t135.5 63.5q41 0 79.5 -15.5t85.5 -45.5q43 -29 72 -42.5t51 -13.5q23 0 51.5 24t61.5 105l141 -75q-29 -104 -96.5 -169t-140.5 -65q-43 0 -83 15.5t-87 46.5 q-41 29 -65.5 42t-47.5 13t-54.5 -23.5t-64.5 -105.5z" />
<glyph unicode="&#xd2;" horiz-adv-x="1376" d="M88 684q0 131 37 259t111.5 228.5t186.5 162t261 61.5q152 0 265.5 -61.5t188 -162t112.5 -228.5t38 -259t-38 -259t-112.5 -228.5t-188 -163t-265.5 -62.5q-150 0 -261.5 62.5t-186 163t-111.5 228.5t-37 259zM352 684q0 -90 21.5 -175t63.5 -150.5t104.5 -104.5 t142.5 -39q82 0 145.5 39t106.5 104.5t64.5 150.5t21.5 175t-21.5 175t-64.5 150.5t-106.5 104.5t-145.5 39q-80 0 -142.5 -39t-104.5 -104.5t-63.5 -150.5t-21.5 -175zM422 1671l121 170l391 -289l-68 -110z" />
<glyph unicode="&#xd3;" horiz-adv-x="1376" d="M88 684q0 131 37 259t111.5 228.5t186.5 162t261 61.5q152 0 265.5 -61.5t188 -162t112.5 -228.5t38 -259t-38 -259t-112.5 -228.5t-188 -163t-265.5 -62.5q-150 0 -261.5 62.5t-186 163t-111.5 228.5t-37 259zM352 684q0 -90 21.5 -175t63.5 -150.5t104.5 -104.5 t142.5 -39q82 0 145.5 39t106.5 104.5t64.5 150.5t21.5 175t-21.5 175t-64.5 150.5t-106.5 104.5t-145.5 39q-80 0 -142.5 -39t-104.5 -104.5t-63.5 -150.5t-21.5 -175zM503 1552l392 289l120 -170l-444 -229z" />
<glyph unicode="&#xd4;" horiz-adv-x="1376" d="M88 684q0 131 37 259t111.5 228.5t186.5 162t261 61.5q152 0 265.5 -61.5t188 -162t112.5 -228.5t38 -259t-38 -259t-112.5 -228.5t-188 -163t-265.5 -62.5q-150 0 -261.5 62.5t-186 163t-111.5 228.5t-37 259zM352 684q0 -90 21.5 -175t63.5 -150.5t104.5 -104.5 t142.5 -39q82 0 145.5 39t106.5 104.5t64.5 150.5t21.5 175t-21.5 175t-64.5 150.5t-106.5 104.5t-145.5 39q-80 0 -142.5 -39t-104.5 -104.5t-63.5 -150.5t-21.5 -175zM366 1546l236 267h188l232 -265l-131 -92l-197 197l-197 -199z" />
<glyph unicode="&#xd5;" horiz-adv-x="1376" d="M88 684q0 131 37 259t111.5 228.5t186.5 162t261 61.5q152 0 265.5 -61.5t188 -162t112.5 -228.5t38 -259t-38 -259t-112.5 -228.5t-188 -163t-265.5 -62.5q-150 0 -261.5 62.5t-186 163t-111.5 228.5t-37 259zM299 1524q37 104 100.5 167.5t135.5 63.5q41 0 79.5 -15.5 t85.5 -45.5q43 -29 72 -42.5t51 -13.5q23 0 51.5 24t61.5 105l141 -75q-29 -104 -96.5 -169t-140.5 -65q-43 0 -83 15.5t-87 46.5q-41 29 -65.5 42t-47.5 13t-54.5 -23.5t-64.5 -105.5zM352 684q0 -90 21.5 -175t63.5 -150.5t104.5 -104.5t142.5 -39q82 0 145.5 39 t106.5 104.5t64.5 150.5t21.5 175t-21.5 175t-64.5 150.5t-106.5 104.5t-145.5 39q-80 0 -142.5 -39t-104.5 -104.5t-63.5 -150.5t-21.5 -175z" />
<glyph unicode="&#xd6;" horiz-adv-x="1376" d="M88 684q0 131 37 259t111.5 228.5t186.5 162t261 61.5q152 0 265.5 -61.5t188 -162t112.5 -228.5t38 -259t-38 -259t-112.5 -228.5t-188 -163t-265.5 -62.5q-150 0 -261.5 62.5t-186 163t-111.5 228.5t-37 259zM346 1622q0 49 36 91t107 42q70 0 105 -42t35 -91 q0 -51 -35 -93t-105 -42q-72 0 -107.5 42t-35.5 93zM352 684q0 -90 21.5 -175t63.5 -150.5t104.5 -104.5t142.5 -39q82 0 145.5 39t106.5 104.5t64.5 150.5t21.5 175t-21.5 175t-64.5 150.5t-106.5 104.5t-145.5 39q-80 0 -142.5 -39t-104.5 -104.5t-63.5 -150.5t-21.5 -175 zM772 1622q0 49 36 91t107 42q70 0 105 -42t35 -91q0 -51 -35 -93t-105 -42q-72 0 -107.5 42t-35.5 93z" />
<glyph unicode="&#xd7;" horiz-adv-x="1054" d="M129 414l246 262l-246 262l150 158l247 -260l250 260l150 -158l-246 -262l246 -262l-150 -158l-250 260l-247 -260z" />
<glyph unicode="&#xd8;" horiz-adv-x="1378" d="M63 90l138 164q-55 94 -83 204.5t-28 225.5q0 131 37 258t111.5 227.5t186.5 162t261 61.5q111 0 198 -32t156 -87l123 149l168 -147l-147 -178q53 -92 79.5 -201t26.5 -213q0 -131 -38 -259t-112.5 -228.5t-188 -162t-265.5 -61.5q-195 0 -338 113l-119 -145zM354 684 q0 -111 31 -205l494 600q-37 35 -85.5 54.5t-107.5 19.5q-80 0 -142.5 -39t-104.5 -104.5t-63.5 -150.5t-21.5 -175zM502 279q35 -25 86 -44.5t98 -19.5q82 0 145.5 39t106.5 104.5t64.5 150.5t21.5 175q0 43 -8 99.5t-19 97.5z" />
<glyph unicode="&#xd9;" horiz-adv-x="1337" d="M141 469v897h262v-870q0 -123 69 -202t198 -79q127 0 194.5 79t67.5 202v870h262v-897q0 -117 -41 -209t-112.5 -156.5t-167 -98.5t-205.5 -34q-111 0 -206 34t-167 98.5t-113 156.5t-41 209zM383 1671l121 170l391 -289l-68 -110z" />
<glyph unicode="&#xda;" horiz-adv-x="1337" d="M141 469v897h262v-870q0 -123 69 -202t198 -79q127 0 194.5 79t67.5 202v870h262v-897q0 -117 -41 -209t-112.5 -156.5t-167 -98.5t-205.5 -34q-111 0 -206 34t-167 98.5t-113 156.5t-41 209zM524 1552l392 289l120 -170l-444 -229z" />
<glyph unicode="&#xdb;" horiz-adv-x="1337" d="M141 469v897h262v-870q0 -123 69 -202t198 -79q127 0 194.5 79t67.5 202v870h262v-897q0 -117 -41 -209t-112.5 -156.5t-167 -98.5t-205.5 -34q-111 0 -206 34t-167 98.5t-113 156.5t-41 209zM348 1546l236 267h188l232 -265l-131 -92l-197 197l-197 -199z" />
<glyph unicode="&#xdc;" horiz-adv-x="1337" d="M141 469v897h262v-870q0 -123 69 -202t198 -79q127 0 194.5 79t67.5 202v870h262v-897q0 -117 -41 -209t-112.5 -156.5t-167 -98.5t-205.5 -34q-111 0 -206 34t-167 98.5t-113 156.5t-41 209zM332 1622q0 49 36 91t107 42q70 0 105 -42t35 -91q0 -51 -35 -93t-105 -42 q-72 0 -107.5 42t-35.5 93zM758 1622q0 49 36 91t107 42q70 0 105 -42t35 -91q0 -51 -35 -93t-105 -42q-72 0 -107.5 42t-35.5 93z" />
<glyph unicode="&#xdd;" horiz-adv-x="1130" d="M0 1366h293l280 -543l269 543h288l-430 -817v-549h-262v549zM413 1552l392 289l120 -170l-444 -229z" />
<glyph unicode="&#xde;" horiz-adv-x="1128" d="M150 0v1366h262v-211h149q96 0 180 -13.5t162 -51.5q98 -49 145.5 -145.5t47.5 -207.5q0 -117 -40 -202.5t-107.5 -142t-158 -84t-190.5 -27.5h-188v-281h-262zM412 516h149q55 0 105.5 9.5t88.5 33t60.5 62.5t22.5 98q0 61 -22.5 100t-59.5 61.5t-82 31t-88 8.5h-174 v-404z" />
<glyph unicode="&#xdf;" horiz-adv-x="1224" d="M31 782v205h137q2 102 40 179t100.5 127t142 75t163.5 25q90 0 173 -25t146.5 -75t101.5 -124.5t38 -175.5v-176h-174q-43 0 -68.5 -19.5t-25.5 -54.5q0 -47 39 -73.5t92 -55.5q39 -23 81 -47t75.5 -60t55 -87t21.5 -123q0 -74 -26.5 -133.5t-71.5 -100t-104.5 -63.5 t-126.5 -23q-98 0 -184.5 32t-139.5 79l98 197q39 -33 96.5 -61.5t112.5 -28.5q47 0 74 22.5t27 63.5q0 63 -44 96t-102 61q-39 20 -77.5 43t-70.5 56.5t-51.5 82t-19.5 117.5q0 53 17.5 102.5t50 87.5t82 63.5t112.5 31.5q-4 43 -23.5 72.5t-47 47t-60.5 26t-63 8.5 q-35 0 -72 -11.5t-66.5 -39t-49 -72.5t-19.5 -113v-940h-254v782h-135z" />
<glyph unicode="&#xe0;" horiz-adv-x="999" d="M66 291q0 74 28.5 130t77.5 95t112.5 63.5t133.5 36.5q49 10 107.5 15.5t97.5 9.5v14q0 82 -42 117t-116 35q-43 0 -82 -10.5t-69.5 -25.5t-54 -30.5t-38.5 -27.5l-84 178q16 14 50 34.5t82 40t108.5 33t130.5 13.5q82 0 149.5 -21.5t116.5 -67.5t77 -117t28 -171v-635 h-234l-10 74q-41 -45 -104.5 -71t-139.5 -26q-63 0 -121.5 21.5t-103.5 61.5t-72.5 98.5t-27.5 132.5zM221 1331l121 170l391 -289l-68 -110zM313 297q0 -49 36 -79t102 -30q49 0 95 20.5t79 51.5v201q-41 -2 -84 -7t-82 -14q-82 -16 -114 -56t-32 -87z" />
<glyph unicode="&#xe1;" horiz-adv-x="999" d="M66 291q0 74 28.5 130t77.5 95t112.5 63.5t133.5 36.5q49 10 107.5 15.5t97.5 9.5v14q0 82 -42 117t-116 35q-43 0 -82 -10.5t-69.5 -25.5t-54 -30.5t-38.5 -27.5l-84 178q16 14 50 34.5t82 40t108.5 33t130.5 13.5q82 0 149.5 -21.5t116.5 -67.5t77 -117t28 -171v-635 h-234l-10 74q-41 -45 -104.5 -71t-139.5 -26q-63 0 -121.5 21.5t-103.5 61.5t-72.5 98.5t-27.5 132.5zM290 1212l392 289l120 -170l-444 -229zM313 297q0 -49 36 -79t102 -30q49 0 95 20.5t79 51.5v201q-41 -2 -84 -7t-82 -14q-82 -16 -114 -56t-32 -87z" />
<glyph unicode="&#xe2;" horiz-adv-x="999" d="M66 291q0 74 28.5 130t77.5 95t112.5 63.5t133.5 36.5q49 10 107.5 15.5t97.5 9.5v14q0 82 -42 117t-116 35q-43 0 -82 -10.5t-69.5 -25.5t-54 -30.5t-38.5 -27.5l-84 178q16 14 50 34.5t82 40t108.5 33t130.5 13.5q82 0 149.5 -21.5t116.5 -67.5t77 -117t28 -171v-635 h-234l-10 74q-41 -45 -104.5 -71t-139.5 -26q-63 0 -121.5 21.5t-103.5 61.5t-72.5 98.5t-27.5 132.5zM176 1206l236 267h188l232 -265l-131 -92l-197 197l-197 -199zM313 297q0 -49 36 -79t102 -30q49 0 95 20.5t79 51.5v201q-41 -2 -84 -7t-82 -14q-82 -16 -114 -56 t-32 -87z" />
<glyph unicode="&#xe3;" horiz-adv-x="999" d="M66 291q0 74 28.5 130t77.5 95t112.5 63.5t133.5 36.5q49 10 107.5 15.5t97.5 9.5v14q0 82 -42 117t-116 35q-43 0 -82 -10.5t-69.5 -25.5t-54 -30.5t-38.5 -27.5l-84 178q16 14 50 34.5t82 40t108.5 33t130.5 13.5q82 0 149.5 -21.5t116.5 -67.5t77 -117t28 -171v-635 h-234l-10 74q-41 -45 -104.5 -71t-139.5 -26q-63 0 -121.5 21.5t-103.5 61.5t-72.5 98.5t-27.5 132.5zM104 1184q37 104 100.5 167.5t135.5 63.5q41 0 79.5 -15.5t85.5 -45.5q43 -29 72 -42.5t51 -13.5q23 0 51.5 24t61.5 105l141 -75q-29 -104 -96.5 -169t-140.5 -65 q-43 0 -83 15.5t-87 46.5q-41 29 -65.5 42t-47.5 13t-54.5 -23.5t-64.5 -105.5zM313 297q0 -49 36 -79t102 -30q49 0 95 20.5t79 51.5v201q-41 -2 -84 -7t-82 -14q-82 -16 -114 -56t-32 -87z" />
<glyph unicode="&#xe4;" horiz-adv-x="999" d="M66 291q0 74 28.5 130t77.5 95t112.5 63.5t133.5 36.5q49 10 107.5 15.5t97.5 9.5v14q0 82 -42 117t-116 35q-43 0 -82 -10.5t-69.5 -25.5t-54 -30.5t-38.5 -27.5l-84 178q16 14 50 34.5t82 40t108.5 33t130.5 13.5q82 0 149.5 -21.5t116.5 -67.5t77 -117t28 -171v-635 h-234l-10 74q-41 -45 -104.5 -71t-139.5 -26q-63 0 -121.5 21.5t-103.5 61.5t-72.5 98.5t-27.5 132.5zM160 1282q0 49 36 91t107 42q70 0 105 -42t35 -91q0 -51 -35 -93t-105 -42q-72 0 -107.5 42t-35.5 93zM313 297q0 -49 36 -79t102 -30q49 0 95 20.5t79 51.5v201 q-41 -2 -84 -7t-82 -14q-82 -16 -114 -56t-32 -87zM586 1282q0 49 36 91t107 42q70 0 105 -42t35 -91q0 -51 -35 -93t-105 -42q-72 0 -107.5 42t-35.5 93z" />
<glyph unicode="&#xe5;" horiz-adv-x="999" d="M66 291q0 74 28.5 130t77.5 95t112.5 63.5t133.5 36.5q49 10 107.5 15.5t97.5 9.5v14q0 82 -42 117t-116 35q-43 0 -82 -10.5t-69.5 -25.5t-54 -30.5t-38.5 -27.5l-84 178q16 14 50 34.5t82 40t108.5 33t130.5 13.5q82 0 149.5 -21.5t116.5 -67.5t77 -117t28 -171v-635 h-234l-10 74q-41 -45 -104.5 -71t-139.5 -26q-63 0 -121.5 21.5t-103.5 61.5t-72.5 98.5t-27.5 132.5zM313 297q0 -49 36 -79t102 -30q49 0 95 20.5t79 51.5v201q-41 -2 -84 -7t-82 -14q-82 -16 -114 -56t-32 -87zM314 1305q0 41 13 80.5t39.5 71.5t66.5 51.5t94 19.5 q53 0 94 -19.5t67.5 -50.5t40 -70.5t13.5 -80.5t-13.5 -81t-40 -72t-67.5 -51.5t-94 -19.5t-93.5 19.5t-67 50.5t-39.5 71t-13 81zM447 1307q0 -41 21.5 -68t58.5 -27q39 0 60.5 27t21.5 68t-21.5 67.5t-60.5 26.5q-37 0 -58.5 -26.5t-21.5 -67.5z" />
<glyph unicode="&#xe6;" horiz-adv-x="1576" d="M66 295q0 94 48 157.5t120.5 102.5t159.5 54.5t167 15.5h60v55q0 57 -39 92t-105 35q-74 0 -134 -23.5t-122 -70.5l-84 180q23 18 58.5 38.5t82 38t99.5 30t110 12.5q197 0 289 -123q59 59 136 91t167 32q94 0 174 -31t138.5 -95.5t92.5 -167t34 -243.5v-45h-639 q8 -125 77.5 -180t180.5 -55q51 0 96 9t80 23.5t59.5 28.5t36.5 27l68 -207q-14 -10 -46 -27.5t-79 -33t-110.5 -27t-139.5 -11.5q-104 0 -192.5 36t-151.5 108q-59 -68 -137 -106t-211 -38q-70 0 -132.5 20.5t-109.5 60.5t-74.5 99.5t-27.5 137.5zM317 295q0 -53 34 -82 t93 -29q29 0 61 9.5t57.5 29t43 48t17.5 65.5v106h-64q-45 0 -89 -8t-78 -25.5t-54.5 -46t-20.5 -67.5zM885 612h375q-4 51 -21.5 89t-43.5 61.5t-55.5 35t-60.5 11.5q-66 0 -125 -49t-69 -148z" />
<glyph unicode="&#xe7;" horiz-adv-x="948" d="M68 489q0 131 36.5 229.5t99 164t144.5 97.5t172 32q86 0 150.5 -22.5t111.5 -56.5t77 -75t48 -78l-188 -127q-31 53 -77 99.5t-120 46.5q-82 0 -142.5 -73t-60.5 -226q0 -147 61.5 -225t178.5 -78q55 0 99 11t77 26.5t54.5 32t31.5 26.5l74 -209q-14 -10 -45 -28.5 t-77 -36t-107.5 -30t-139.5 -12.5q-90 0 -173 31t-146.5 94.5t-101 159.5t-37.5 227zM307 -371l121 281h225l-166 -281h-180z" />
<glyph unicode="&#xe8;" horiz-adv-x="1021" d="M68 494q0 125 35.5 221t98 161.5t145.5 100.5t177 35t174 -31t138.5 -95.5t92.5 -167t34 -243.5v-45h-639q8 -125 77.5 -180t180.5 -55q51 0 96 9t80 23.5t59.5 28.5t36.5 27l68 -207q-14 -10 -46 -27.5t-79 -33t-110.5 -27t-139.5 -11.5q-96 0 -183.5 31t-153 95.5 t-104 160.5t-38.5 230zM260 1331l121 170l391 -289l-68 -110zM330 612h375q-4 51 -21.5 89t-43.5 61.5t-55.5 35t-60.5 11.5q-66 0 -125 -49t-69 -148z" />
<glyph unicode="&#xe9;" horiz-adv-x="1021" d="M68 494q0 125 35.5 221t98 161.5t145.5 100.5t177 35t174 -31t138.5 -95.5t92.5 -167t34 -243.5v-45h-639q8 -125 77.5 -180t180.5 -55q51 0 96 9t80 23.5t59.5 28.5t36.5 27l68 -207q-14 -10 -46 -27.5t-79 -33t-110.5 -27t-139.5 -11.5q-96 0 -183.5 31t-153 95.5 t-104 160.5t-38.5 230zM327 1212l392 289l120 -170l-444 -229zM330 612h375q-4 51 -21.5 89t-43.5 61.5t-55.5 35t-60.5 11.5q-66 0 -125 -49t-69 -148z" />
<glyph unicode="&#xea;" horiz-adv-x="1021" d="M68 494q0 125 35.5 221t98 161.5t145.5 100.5t177 35t174 -31t138.5 -95.5t92.5 -167t34 -243.5v-45h-639q8 -125 77.5 -180t180.5 -55q51 0 96 9t80 23.5t59.5 28.5t36.5 27l68 -207q-14 -10 -46 -27.5t-79 -33t-110.5 -27t-139.5 -11.5q-96 0 -183.5 31t-153 95.5 t-104 160.5t-38.5 230zM188 1206l236 267h188l232 -265l-131 -92l-197 197l-197 -199zM330 612h375q-4 51 -21.5 89t-43.5 61.5t-55.5 35t-60.5 11.5q-66 0 -125 -49t-69 -148z" />
<glyph unicode="&#xeb;" horiz-adv-x="1021" d="M68 494q0 125 35.5 221t98 161.5t145.5 100.5t177 35t174 -31t138.5 -95.5t92.5 -167t34 -243.5v-45h-639q8 -125 77.5 -180t180.5 -55q51 0 96 9t80 23.5t59.5 28.5t36.5 27l68 -207q-14 -10 -46 -27.5t-79 -33t-110.5 -27t-139.5 -11.5q-96 0 -183.5 31t-153 95.5 t-104 160.5t-38.5 230zM190 1282q0 49 36 91t107 42q70 0 105 -42t35 -91q0 -51 -35 -93t-105 -42q-72 0 -107.5 42t-35.5 93zM330 612h375q-4 51 -21.5 89t-43.5 61.5t-55.5 35t-60.5 11.5q-66 0 -125 -49t-69 -148zM616 1282q0 49 36 91t107 42q70 0 105 -42t35 -91 q0 -51 -35 -93t-105 -42q-72 0 -107.5 42t-35.5 93z" />
<glyph unicode="&#xec;" horiz-adv-x="505" d="M-2 1331l121 170l391 -289l-68 -110zM127 0v987h252v-987h-252z" />
<glyph unicode="&#xed;" horiz-adv-x="505" d="M-5 1212l392 289l120 -170l-444 -229zM127 0v987h252v-987h-252z" />
<glyph unicode="&#xee;" horiz-adv-x="505" d="M-68 1206l236 267h188l232 -265l-131 -92l-197 197l-197 -199zM127 0v987h252v-987h-252z" />
<glyph unicode="&#xef;" horiz-adv-x="505" d="M-94 1282q0 49 36 91t107 42q70 0 105 -42t35 -91q0 -51 -35 -93t-105 -42q-72 0 -107.5 42t-35.5 93zM127 0v987h252v-987h-252zM332 1282q0 49 36 91t107 42q70 0 105 -42t35 -91q0 -51 -35 -93t-105 -42q-72 0 -107.5 42t-35.5 93z" />
<glyph unicode="&#xf0;" horiz-adv-x="1107" d="M76 492q0 104 27.5 196t81 162t132 110.5t183.5 40.5q49 0 95 -11t85 -38q-23 53 -56.5 103.5t-74.5 95.5l-211 -98l-94 102l202 92q-27 20 -51 38t-47 32l215 96q23 -14 45.5 -30.5t46.5 -39.5l197 91l94 -99l-192 -90q53 -59 103 -135t89 -165t62.5 -190.5t23.5 -213.5 q0 -127 -30.5 -230.5t-90 -177.5t-149.5 -113.5t-207 -39.5q-96 0 -183 31.5t-152.5 96t-104.5 161t-39 223.5zM324 494q0 -74 19 -129.5t51 -93.5t72 -56t83 -18q41 0 81 18t70.5 56t50 95.5t19.5 135.5q0 59 -12.5 126.5t-28.5 106.5q-90 51 -178 51q-98 0 -162.5 -72.5 t-64.5 -219.5z" />
<glyph unicode="&#xf1;" horiz-adv-x="1130" d="M127 0v987h231l13 -78q59 49 134 76t150 27q78 0 143.5 -23.5t112.5 -75t73 -133.5t26 -196v-584h-254v563q0 113 -47 174.5t-131 61.5q-59 0 -109.5 -31t-87.5 -68v-700h-254zM174 1184q37 104 100.5 167.5t135.5 63.5q41 0 79.5 -15.5t85.5 -45.5q43 -29 72 -42.5 t51 -13.5q23 0 51.5 24t61.5 105l141 -75q-29 -104 -96.5 -169t-140.5 -65q-43 0 -83 15.5t-87 46.5q-41 29 -65.5 42t-47.5 13t-54.5 -23.5t-64.5 -105.5z" />
<glyph unicode="&#xf2;" horiz-adv-x="1081" d="M68 498q0 96 29.5 188t88 165t147.5 117t208 44t207 -44t147 -117t89 -165t30 -188t-30 -189.5t-88 -167t-147.5 -119t-207.5 -45.5q-119 0 -208 45.5t-147.5 119t-88 166.5t-29.5 190zM287 1331l121 170l391 -289l-68 -110zM317 498q0 -63 14.5 -117.5t42 -95.5 t69.5 -64.5t98 -23.5q55 0 96 23.5t69.5 64.5t43 95.5t14.5 117.5q0 61 -14.5 116.5t-43 95.5t-69.5 63.5t-96 23.5t-96.5 -23.5t-70 -63.5t-43 -95.5t-14.5 -116.5z" />
<glyph unicode="&#xf3;" horiz-adv-x="1081" d="M68 498q0 96 29.5 188t88 165t147.5 117t208 44t207 -44t147 -117t89 -165t30 -188t-30 -189.5t-88 -167t-147.5 -119t-207.5 -45.5q-119 0 -208 45.5t-147.5 119t-88 166.5t-29.5 190zM317 498q0 -63 14.5 -117.5t42 -95.5t69.5 -64.5t98 -23.5q55 0 96 23.5t69.5 64.5 t43 95.5t14.5 117.5q0 61 -14.5 116.5t-43 95.5t-69.5 63.5t-96 23.5t-96.5 -23.5t-70 -63.5t-43 -95.5t-14.5 -116.5zM329 1212l392 289l120 -170l-444 -229z" />
<glyph unicode="&#xf4;" horiz-adv-x="1081" d="M68 498q0 96 29.5 188t88 165t147.5 117t208 44t207 -44t147 -117t89 -165t30 -188t-30 -189.5t-88 -167t-147.5 -119t-207.5 -45.5q-119 0 -208 45.5t-147.5 119t-88 166.5t-29.5 190zM209 1206l236 267h188l232 -265l-131 -92l-197 197l-197 -199zM317 498 q0 -63 14.5 -117.5t42 -95.5t69.5 -64.5t98 -23.5q55 0 96 23.5t69.5 64.5t43 95.5t14.5 117.5q0 61 -14.5 116.5t-43 95.5t-69.5 63.5t-96 23.5t-96.5 -23.5t-70 -63.5t-43 -95.5t-14.5 -116.5z" />
<glyph unicode="&#xf5;" horiz-adv-x="1081" d="M68 498q0 96 29.5 188t88 165t147.5 117t208 44t207 -44t147 -117t89 -165t30 -188t-30 -189.5t-88 -167t-147.5 -119t-207.5 -45.5q-119 0 -208 45.5t-147.5 119t-88 166.5t-29.5 190zM139 1184q37 104 100.5 167.5t135.5 63.5q41 0 79.5 -15.5t85.5 -45.5 q43 -29 72 -42.5t51 -13.5q23 0 51.5 24t61.5 105l141 -75q-29 -104 -96.5 -169t-140.5 -65q-43 0 -83 15.5t-87 46.5q-41 29 -65.5 42t-47.5 13t-54.5 -23.5t-64.5 -105.5zM317 498q0 -63 14.5 -117.5t42 -95.5t69.5 -64.5t98 -23.5q55 0 96 23.5t69.5 64.5t43 95.5 t14.5 117.5q0 61 -14.5 116.5t-43 95.5t-69.5 63.5t-96 23.5t-96.5 -23.5t-70 -63.5t-43 -95.5t-14.5 -116.5z" />
<glyph unicode="&#xf6;" horiz-adv-x="1081" d="M68 498q0 96 29.5 188t88 165t147.5 117t208 44t207 -44t147 -117t89 -165t30 -188t-30 -189.5t-88 -167t-147.5 -119t-207.5 -45.5q-119 0 -208 45.5t-147.5 119t-88 166.5t-29.5 190zM199 1282q0 49 36 91t107 42q70 0 105 -42t35 -91q0 -51 -35 -93t-105 -42 q-72 0 -107.5 42t-35.5 93zM317 498q0 -63 14.5 -117.5t42 -95.5t69.5 -64.5t98 -23.5q55 0 96 23.5t69.5 64.5t43 95.5t14.5 117.5q0 61 -14.5 116.5t-43 95.5t-69.5 63.5t-96 23.5t-96.5 -23.5t-70 -63.5t-43 -95.5t-14.5 -116.5zM625 1282q0 49 36 91t107 42 q70 0 105 -42t35 -91q0 -51 -35 -93t-105 -42q-72 0 -107.5 42t-35.5 93z" />
<glyph unicode="&#xf7;" d="M45 563v225h959v-225h-959zM371 309q0 63 44 111.5t111 48.5q68 0 112 -48t44 -112q0 -66 -44 -114t-112 -48t-111.5 48.5t-43.5 113.5zM371 1069q0 63 44 112.5t111 49.5q68 0 112 -49t44 -113q0 -63 -44 -112.5t-112 -49.5t-111.5 49.5t-43.5 112.5z" />
<glyph unicode="&#xf8;" horiz-adv-x="1081" d="M68 498q0 96 29.5 188t88 165t147.5 117t208 44q61 0 113.5 -12.5t99.5 -34.5l73 114l134 -96l-76 -119q66 -74 97.5 -169t31.5 -197q0 -96 -30 -189.5t-88 -167t-147.5 -119t-207.5 -45.5q-106 0 -197 39l-80 -125l-133 97l80 125q-72 76 -107.5 177t-35.5 208zM315 498 q0 -98 29 -174l293 456h2q-41 20 -98 21q-55 0 -97.5 -23.5t-71 -65.5t-43 -97.5t-14.5 -116.5zM469 203q31 -10 72 -10q55 0 97 23.5t70.5 65.5t43 97.5t14.5 118.5q0 39 -5 76.5t-13 68.5z" />
<glyph unicode="&#xf9;" horiz-adv-x="1126" d="M121 399v588h254v-561q0 -102 37 -165.5t127 -63.5q74 0 125 29.5t81 56.5v704h254v-987h-233l-8 78q-68 -57 -140.5 -77.5t-142.5 -20.5q-174 0 -264 104t-90 315zM293 1331l121 170l391 -289l-68 -110z" />
<glyph unicode="&#xfa;" horiz-adv-x="1126" d="M121 399v588h254v-561q0 -102 37 -165.5t127 -63.5q74 0 125 29.5t81 56.5v704h254v-987h-233l-8 78q-68 -57 -140.5 -77.5t-142.5 -20.5q-174 0 -264 104t-90 315zM374 1212l392 289l120 -170l-444 -229z" />
<glyph unicode="&#xfb;" horiz-adv-x="1126" d="M121 399v588h254v-561q0 -102 37 -165.5t127 -63.5q74 0 125 29.5t81 56.5v704h254v-987h-233l-8 78q-68 -57 -140.5 -77.5t-142.5 -20.5q-174 0 -264 104t-90 315zM243 1206l236 267h188l232 -265l-131 -92l-197 197l-197 -199z" />
<glyph unicode="&#xfc;" horiz-adv-x="1126" d="M121 399v588h254v-561q0 -102 37 -165.5t127 -63.5q74 0 125 29.5t81 56.5v704h254v-987h-233l-8 78q-68 -57 -140.5 -77.5t-142.5 -20.5q-174 0 -264 104t-90 315zM209 1282q0 49 36 91t107 42q70 0 105 -42t35 -91q0 -51 -35 -93t-105 -42q-72 0 -107.5 42t-35.5 93z M635 1282q0 49 36 91t107 42q70 0 105 -42t35 -91q0 -51 -35 -93t-105 -42q-72 0 -107.5 42t-35.5 93z" />
<glyph unicode="&#xfd;" horiz-adv-x="1030" d="M8 987h273l274 -758q31 74 61.5 166t59.5 191.5t55.5 202t48.5 198.5h250q-76 -297 -162 -544.5t-170 -417.5q-39 -78 -81 -152t-109.5 -132t-169.5 -94t-262 -38l-23 227q37 0 84 4t93 16.5t87 34t68 58.5q8 10 14.5 20.5t14.5 26.5zM335 1212l392 289l120 -170 l-444 -229z" />
<glyph unicode="&#xfe;" horiz-adv-x="1130" d="M141 -387v1753h254v-444q35 33 91.5 61.5t131.5 28.5q100 0 177 -43t128.5 -114t77 -165t25.5 -194q0 -96 -29.5 -189.5t-90 -166t-155 -118t-223.5 -45.5q-68 0 -131 29v-393h-256zM395 227q61 -29 119 -28q68 0 118 24.5t83 66.5t48 94.5t15 107.5q0 57 -13 112t-40 98 t-67 70t-93 27t-100 -30t-70 -64v-478z" />
<glyph unicode="&#xff;" horiz-adv-x="1030" d="M8 987h273l274 -758q31 74 61.5 166t59.5 191.5t55.5 202t48.5 198.5h250q-76 -297 -162 -544.5t-170 -417.5q-39 -78 -81 -152t-109.5 -132t-169.5 -94t-262 -38l-23 227q37 0 84 4t93 16.5t87 34t68 58.5q8 10 14.5 20.5t14.5 26.5zM194 1282q0 49 36 91t107 42 q70 0 105 -42t35 -91q0 -51 -35 -93t-105 -42q-72 0 -107.5 42t-35.5 93zM620 1282q0 49 36 91t107 42q70 0 105 -42t35 -91q0 -51 -35 -93t-105 -42q-72 0 -107.5 42t-35.5 93z" />
<glyph unicode="&#x152;" horiz-adv-x="1884" d="M80 682q0 160 51 286t142.5 215t215 136t269.5 47h1026v-248h-629v-311h520v-248h-520v-311h674v-248h-1071q-154 0 -279 48t-214 137t-137 215t-48 282zM352 684q0 -96 31 -176t84 -138.5t124 -90t152 -31.5h150v870h-150q-82 0 -153.5 -29.5t-123.5 -86t-83 -137.5 t-31 -181z" />
<glyph unicode="&#x153;" horiz-adv-x="1695" d="M68 498q0 96 29.5 188t88 165t147.5 117t208 44q117 0 199.5 -45t136.5 -123q57 78 138 123t183 45q94 0 174 -31t138.5 -95.5t92 -167t33.5 -243.5v-45h-639q8 -125 78 -180t180 -55q51 0 96.5 9t80 23.5t59.5 28.5t37 27l67 -207q-14 -10 -45.5 -27.5t-79 -33t-111 -27 t-138.5 -11.5q-111 0 -206 42t-147 122q-51 -66 -132 -115t-208 -49q-115 0 -200.5 45.5t-144 119t-87 166.5t-28.5 190zM317 498q0 -63 14.5 -117.5t42 -95.5t69.5 -64.5t98 -23.5q55 0 96 23.5t69.5 64.5t43 95.5t14.5 117.5q0 61 -14.5 116.5t-43 95.5t-69.5 63.5 t-96 23.5t-96.5 -23.5t-70 -63.5t-43 -95.5t-14.5 -116.5zM1004 612h374q-4 51 -21.5 89t-43 61.5t-55 35t-60.5 11.5q-66 0 -125 -49t-69 -148z" />
<glyph unicode="&#x178;" horiz-adv-x="1130" d="M0 1366h293l280 -543l269 543h288l-430 -817v-549h-262v549zM244 1622q0 49 36 91t107 42q70 0 105 -42t35 -91q0 -51 -35 -93t-105 -42q-72 0 -107.5 42t-35.5 93zM670 1622q0 49 36 91t107 42q70 0 105 -42t35 -91q0 -51 -35 -93t-105 -42q-72 0 -107.5 42t-35.5 93z " />
<glyph unicode="&#x2c6;" horiz-adv-x="905" d="M100 1206l236 267h188l232 -265l-131 -92l-197 197l-197 -199z" />
<glyph unicode="&#x2dc;" horiz-adv-x="905" d="M43 1184q37 104 100.5 167.5t135.5 63.5q41 0 79.5 -15.5t85.5 -45.5q43 -29 72 -42.5t51 -13.5q23 0 51.5 24t61.5 105l141 -75q-29 -104 -96.5 -169t-140.5 -65q-43 0 -83 15.5t-87 46.5q-41 29 -65.5 42t-47.5 13t-54.5 -23.5t-64.5 -105.5z" />
<glyph unicode="&#x2000;" horiz-adv-x="934" />
<glyph unicode="&#x2001;" horiz-adv-x="1868" />
<glyph unicode="&#x2002;" horiz-adv-x="934" />
<glyph unicode="&#x2003;" horiz-adv-x="1868" />
<glyph unicode="&#x2004;" horiz-adv-x="622" />
<glyph unicode="&#x2005;" horiz-adv-x="467" />
<glyph unicode="&#x2006;" horiz-adv-x="311" />
<glyph unicode="&#x2007;" horiz-adv-x="311" />
<glyph unicode="&#x2008;" horiz-adv-x="233" />
<glyph unicode="&#x2009;" horiz-adv-x="373" />
<glyph unicode="&#x200a;" horiz-adv-x="103" />
<glyph unicode="&#x2010;" horiz-adv-x="643" d="M74 412v243h493v-243h-493z" />
<glyph unicode="&#x2011;" horiz-adv-x="643" d="M74 412v243h493v-243h-493z" />
<glyph unicode="&#x2012;" horiz-adv-x="643" d="M74 412v243h493v-243h-493z" />
<glyph unicode="&#x2013;" horiz-adv-x="1024" d="M0 418v192h1026v-192h-1026z" />
<glyph unicode="&#x2014;" horiz-adv-x="2048" d="M0 418v192h2048v-192h-2048z" />
<glyph unicode="&#x2018;" horiz-adv-x="442" d="M68 1022q0 76 45 169t155 179l68 -92q-35 -29 -65.5 -69t-34.5 -74q49 -4 86.5 -46t37.5 -104q0 -57 -36.5 -101t-106.5 -44q-72 0 -110.5 51t-38.5 131z" />
<glyph unicode="&#x2019;" horiz-adv-x="452" d="M92 1221q0 57 37 101t107 44q72 0 110.5 -51t38.5 -131q0 -76 -45 -169t-156 -179l-67 92q35 29 65.5 68.5t34.5 74.5q-49 4 -87 46t-38 104z" />
<glyph unicode="&#x201a;" horiz-adv-x="417" d="M53 160q0 57 37 101t107 44q72 0 110.5 -51t38.5 -131q0 -76 -45 -169t-156 -179l-67 92q35 29 65.5 68.5t34.5 74.5q-49 4 -87 46t-38 104z" />
<glyph unicode="&#x201c;" horiz-adv-x="849" d="M68 1022q0 76 45 169t155 179l68 -92q-35 -29 -65.5 -69t-34.5 -74q49 -4 86.5 -46t37.5 -104q0 -57 -36.5 -101t-106.5 -44q-72 0 -110.5 51t-38.5 131zM476 1022q0 76 45 169t155 179l68 -92q-35 -29 -65.5 -69t-34.5 -74q49 -4 86.5 -46t37.5 -104q0 -57 -36.5 -101 t-106.5 -44q-72 0 -110.5 51t-38.5 131z" />
<glyph unicode="&#x201d;" horiz-adv-x="860" d="M92 1221q0 57 37 101t107 44q72 0 110.5 -51t38.5 -131q0 -76 -45 -169t-156 -179l-67 92q35 29 65.5 68.5t34.5 74.5q-49 4 -87 46t-38 104zM500 1221q0 57 37 101t107 44q72 0 110.5 -51t38.5 -131q0 -76 -45 -169t-156 -179l-67 92q35 29 65.5 68.5t34.5 74.5 q-49 4 -87 46t-38 104z" />
<glyph unicode="&#x201e;" horiz-adv-x="825" d="M53 160q0 57 37 101t107 44q72 0 110.5 -51t38.5 -131q0 -76 -45 -169t-156 -179l-67 92q35 29 65.5 68.5t34.5 74.5q-49 4 -87 46t-38 104zM461 160q0 57 37 101t107 44q72 0 110.5 -51t38.5 -131q0 -76 -45 -169t-156 -179l-67 92q35 29 65.5 68.5t34.5 74.5 q-49 4 -87 46t-38 104z" />
<glyph unicode="&#x2022;" horiz-adv-x="1052" d="M102 788q0 86 34 163t91.5 134.5t135 91t163.5 33.5t164 -33.5t135.5 -91t91 -134.5t33.5 -163t-33.5 -162.5t-91 -134t-135.5 -91t-164 -33.5t-163.5 33.5t-135 91t-91.5 134t-34 162.5z" />
<glyph unicode="&#x2026;" horiz-adv-x="1335" d="M74 125q0 57 35.5 103t107.5 46t106.5 -46t34.5 -103q0 -55 -34.5 -101.5t-106.5 -46.5t-107.5 46.5t-35.5 101.5zM527 125q0 57 35.5 103t107.5 46t106.5 -46t34.5 -103q0 -55 -34.5 -101.5t-106.5 -46.5t-107.5 46.5t-35.5 101.5zM979 125q0 57 35.5 103t107.5 46 t106.5 -46t34.5 -103q0 -55 -34.5 -101.5t-106.5 -46.5t-107.5 46.5t-35.5 101.5z" />
<glyph unicode="&#x202f;" horiz-adv-x="373" />
<glyph unicode="&#x2039;" horiz-adv-x="673" d="M29 512l403 434l168 -139l-278 -283l305 -276l-156 -156z" />
<glyph unicode="&#x203a;" horiz-adv-x="673" d="M47 248l305 276l-278 283l168 139l401 -434l-440 -420z" />
<glyph unicode="&#x205f;" horiz-adv-x="467" />
<glyph unicode="&#x20ac;" d="M66 481v162h673v-162h-270q6 -47 16.5 -95t35 -87t67.5 -62.5t112 -23.5q90 0 150.5 40t101.5 79l99 -213q-29 -27 -64 -52.5t-80 -45t-102 -32t-133 -12.5q-127 0 -216 46.5t-146.5 119t-88.5 162.5t-41 176h-114zM66 748v161h118q8 76 38 159t85 152.5t140 114.5 t206 45q90 0 155.5 -19.5t112 -50t78 -65.5t54.5 -65l-154 -183q-14 27 -32.5 52.5t-45 46t-61.5 33t-84 12.5q-61 0 -99 -25.5t-59.5 -61.5t-31 -76t-13.5 -69h266v-161h-673z" />
<glyph unicode="&#x2122;" horiz-adv-x="1277" d="M37 1204v162h461v-162h-156v-426h-149v426h-156zM573 778v588h181l123 -375l116 375h176v-588h-145v303l-104 -307h-89l-110 301v-297h-148z" />
<glyph unicode="&#xe000;" horiz-adv-x="983" d="M0 0v983h983v-983h-983z" />
</font>
</defs>
</svg>
